<svg preserveAspectRatio="xMidYMid meet" overflow="visible" style="display: block;" viewBox="0 0 31.5849 31.584" fill="none" xmlns="http://www.w3.org/2000/svg">
<g id="clippath">
<path id="Vector" d="M1.62343 8.82603C1.88865 8.25763 2.50959 7.19031 2.97583 6.56717C3.42417 5.9672 4.08301 5.21249 4.58924 4.66093C4.84709 4.37989 5.23123 4.04411 5.52171 3.7957C5.81219 3.54729 6.18475 3.25362 6.48154 3.03783C6.77834 2.82205 7.21826 2.54417 7.53505 2.33365C7.85184 2.12313 8.31386 1.87367 8.66222 1.70525C9.30738 1.39369 10.1967 1.03791 10.8703 0.791604C11.2428 0.654767 11.7554 0.512668 12.1437 0.431618C12.5868 0.340043 13.1772 0.204258 13.6266 0.152681C14.456 0.0558429 14.9569 -0.00204967 15.8515 5.55138e-05C16.3851 0.0021607 17.0987 0.0411066 17.6281 0.106367C17.9448 0.145313 18.3669 0.208469 18.6816 0.265309C18.9468 0.313728 19.2972 0.394777 19.5583 0.45688C19.6372 0.475827 20.3518 0.650557 21.1538 0.938967C21.9978 1.24211 22.6419 1.56315 22.6472 1.56631C22.6967 1.59157 22.763 1.6221 22.8124 1.64736C22.8619 1.67262 22.9271 1.70525 22.9756 1.72946C23.0755 1.78104 23.2092 1.85156 23.3081 1.90419C23.3344 1.91893 23.5755 2.0484 23.8617 2.21787C24.3111 2.48522 24.6984 2.74627 24.8552 2.85889C25.0903 3.02661 25.346 3.21783 25.6225 3.43256C25.7498 3.53045 25.9119 3.67149 26.0361 3.7736C30.4543 7.53766 31.6562 14.389 28.5346 20.7361C24.7289 28.4737 15.9399 32.5336 8.90113 29.8031C15.9399 32.5336 24.73 28.4748 28.5346 20.7361C31.6562 14.389 30.4532 7.53872 26.0361 3.7736C26.375 4.07464 26.816 4.48936 27.138 4.80829C27.3232 4.9925 27.5548 5.25354 27.7263 5.45037C27.9852 5.7472 28.5262 6.39139 29.1019 7.29557C29.6786 8.2008 30.5132 9.71021 31.0552 11.7491C31.3541 12.8754 31.673 14.5742 31.5625 16.6405C31.5425 17.0194 31.4941 17.5236 31.4446 17.9004C31.3952 18.2773 31.2941 18.7583 31.2299 19.1256C31.1657 19.493 31.0247 20.0056 30.9058 20.373C30.669 21.1056 30.2996 22.0676 29.9617 22.7592C29.4997 23.7065 28.9798 24.4907 28.7114 24.8738C28.2799 25.4886 27.64 26.2633 27.117 26.8011C26.3634 27.5769 25.793 28.019 25.2415 28.4463C25.2057 28.4737 24.3522 29.1316 23.1482 29.7652C22.1841 30.2726 21.4895 30.521 20.877 30.741C20.5044 30.8747 19.995 31.0157 19.6119 31.1136C19.272 31.1999 18.81 31.2841 18.4658 31.3557C18.0448 31.4431 17.4733 31.501 17.045 31.5346C16.4577 31.582 15.6694 31.5989 15.0801 31.5694C14.8075 31.5557 14.4444 31.5336 14.1739 31.5031C13.8119 31.462 13.3298 31.3989 12.971 31.3325C10.8566 30.9368 9.41262 30.2463 8.93797 30.0189C8.73484 29.921 8.47489 29.7884 8.27597 29.68C8.11705 29.5937 7.74449 29.3905 7.28351 29.0958C6.37946 28.5179 5.55749 27.8664 4.77131 27.1032C4.00723 26.3622 3.31472 25.5254 2.7506 24.6949C2.53906 24.3833 2.26016 23.9634 2.08546 23.6297C1.92338 23.3202 1.695 22.9129 1.54555 22.5971C1.38452 22.256 1.17824 21.7971 1.04984 21.4424C0.819357 20.8077 0.580451 20.1509 0.354174 19.1025C0.201568 18.3941 0.0836939 17.431 0.027914 16.7089C-0.00155466 16.3321 -0.00365956 15.8268 0.0037076 15.4479C0.0110748 15.069 0.0552777 14.59 0.0773792 14.2216C0.0994806 13.8532 0.179467 13.3353 0.255243 12.9606C0.362593 12.4312 0.509937 11.7238 0.680434 11.2112C0.922497 10.4807 1.29822 9.5218 1.62448 8.82498L1.62343 8.82603Z" fill="var(--fill-0, black)"/>
</g>
</svg>
