<svg preserveAspectRatio="none" width="100%" height="100%" overflow="visible" style="display: block;" viewBox="0 0 94.2596 54.0001" fill="none" xmlns="http://www.w3.org/2000/svg">
<g id="Group 6">
<g id="Group 3">
<g id="Vector">
<path d="M13.3907 14.9769C15.0854 16.541 15.9447 18.4842 15.9447 20.7829C15.9447 25.0484 12.5314 28.5083 8.33037 28.6979C9.49996 28.2002 10.3115 27.5841 10.7412 26.8969C9.83413 27.75 8.52132 28.3187 6.82661 28.6268C3.17461 28.1291 0.286431 24.4797 0 20.7829H5.46606C5.46606 22.418 6.30148 23.2474 7.94846 23.2474C9.59544 23.2474 10.4309 22.418 10.4309 20.7829C10.4309 20.0956 10.1922 19.5269 9.71479 19.0529C8.68841 18.1761 7.66203 17.2993 6.63565 16.3988C5.60927 15.4983 4.60677 14.6215 3.60426 13.7684C1.90954 12.1806 1.07412 10.2374 1.07412 7.96242C1.07412 3.60205 4.65451 0.0473954 9.07032 0.0473954C10.1922 0.0473954 11.314 0.284372 12.3881 0.758326C10.6934 1.39816 9.59544 2.10909 9.07032 2.93851C9.95348 2.0617 11.314 1.46926 13.152 1.16119C15.2763 2.46456 16.804 5.30828 17.0188 7.96242H11.5288C11.5527 7.93872 11.5527 7.93872 11.5527 7.96242C11.5527 6.32728 10.7173 5.49786 9.07032 5.49786C7.42334 5.49786 6.58791 6.32728 6.58791 7.96242C6.58791 8.64965 6.82661 9.2184 7.30399 9.71605L10.3831 12.3702C11.4095 13.247 12.412 14.1238 13.3907 14.9769Z" fill="var(--fill-0, white)"/>
<path d="M30.0667 7.46477L35.7237 7.20409C35.9385 7.93872 36.0578 8.60226 36.034 9.1947H36.0578V23.2474L30.0667 28.7927H26.8682C24.5051 28.7927 22.5001 27.9633 20.9009 26.3281C19.23 24.7167 18.3946 22.7498 18.3946 20.4037V18.887C18.3946 16.6121 19.1584 14.6926 20.7815 13.0574C22.333 11.446 24.2664 10.5929 26.5818 10.4981C25.0541 12.2043 24.3619 14.266 24.3619 16.7069C24.3619 17.0386 24.3858 17.3704 24.4335 17.7259C24.6006 15.7353 25.2212 14.1001 26.2715 12.6783C27.3456 11.3275 28.5868 10.6166 30.0189 10.4981H30.0667V7.46477ZM30.0667 16.4225H26.8682C25.5554 16.4225 24.3619 17.56 24.3619 18.887V20.4037C24.3619 21.0909 24.6006 21.6597 25.078 22.1336C25.627 22.5839 26.176 22.8446 26.8682 22.8446H29.1835L30.0667 28.3187V16.4225Z" fill="var(--fill-0, white)"/>
<path d="M43.401 8.00982H43.4487C44.857 8.46007 46.0266 9.1473 47.0768 10.0952C48.1271 11.1853 48.7 12.3702 48.7716 13.6262V13.9342H43.401V28.7927H37.3859L37.4098 8.03351H43.401V8.00982ZM44.2603 8.00982H49.5354C51.2778 8.00982 52.7577 8.67335 53.9989 9.88193C55.2163 11.1379 55.8607 12.5835 55.8607 14.3134V28.7927H49.9412V14.503C50.0128 12.5361 49.3922 10.9957 47.9839 9.78714C47.053 8.95772 45.8118 8.36528 44.2603 8.00982Z" fill="var(--fill-0, white)"/>
<path d="M68.0971 7.46477L73.7541 7.20409C73.9689 7.93872 74.0883 8.60226 74.0644 9.1947H74.0883V23.2474L68.0971 28.7927H64.8986C62.5355 28.7927 60.5305 27.9633 58.9313 26.3281C57.2604 24.7167 56.425 22.7498 56.425 20.4037V18.887C56.425 16.6121 57.1888 14.6926 58.8119 13.0574C60.3634 11.446 62.2968 10.5929 64.6122 10.4981C63.0845 12.2043 62.3923 14.266 62.3923 16.7069C62.3923 17.0386 62.4162 17.3704 62.4639 17.7259C62.631 15.7353 63.2516 14.1001 64.3019 12.6783C65.376 11.3275 66.6172 10.6166 68.0493 10.4981H68.0971V7.46477ZM68.0971 16.4225H64.8986C63.5858 16.4225 62.3923 17.56 62.3923 18.887V20.4037C62.3923 21.0909 62.631 21.6597 63.1084 22.1336C63.6574 22.5839 64.2064 22.8446 64.8986 22.8446H67.2139L68.0971 28.3187V16.4225Z" fill="var(--fill-0, white)"/>
<path d="M93.1034 28.7927H87.0645C85.6324 28.6742 84.3912 27.9633 83.3171 26.6125C82.2668 25.1906 81.6462 23.5555 81.4791 21.5649C81.4314 21.9204 81.4075 22.2758 81.4075 22.5839C81.4075 25.0247 82.0997 27.0864 83.6273 28.7927C81.312 28.6979 79.3786 27.8448 77.8271 26.2333C76.204 24.5982 75.4402 22.6787 75.4402 20.4037V16.4225C75.4402 14.0764 76.2756 12.1095 77.9465 10.4981C79.5457 8.86293 81.5507 8.03351 83.9138 8.03351H87.1123V0H93.1034V28.7927ZM86.2291 13.9816H83.9138C83.2216 13.9816 82.6726 14.2423 82.1236 14.6926C81.6462 15.1665 81.4075 15.7353 81.4075 16.4225V20.4037C81.4075 21.7308 82.601 22.8683 83.9138 22.8683H87.1123V8.50747L86.2291 13.9816Z" fill="var(--fill-0, white)"/>
</g>
</g>
<g id="CarWash">
<path d="M5.52575 32.8966H6.25525C8.63482 32.8966 10.2849 33.8866 11.1881 35.884C11.3791 36.5093 11.4312 37.8815 11.4312 38.5241L7.43635 39.4273V38.6457C7.43635 37.8467 7.10634 37.3257 6.46368 37.0651L5.87313 36.9783C5.59523 36.9783 5.36943 37.013 5.19574 37.0999C5.28258 36.0751 5.80366 35.1719 6.72422 34.3903C4.76151 35.1372 4.46624 36.683 4.32728 38.4199C4.30992 38.5068 4.29255 38.6284 4.29255 38.6978C4.22307 39.4447 4.2057 40.2089 4.24044 41.0253C4.27518 41.8416 4.29255 42.6232 4.29255 43.3875V48.5982C4.36202 49.8314 5.40417 50.3351 6.25525 50.2135C6.02946 50.9604 5.49101 51.7073 4.63993 52.4368C5.62997 51.8983 7.50583 50.1093 7.43635 48.8414V47.9034L11.5355 48.5461V48.9803C11.5355 49.5188 11.4139 50.1441 11.1881 50.8909C10.2675 52.8884 8.63482 53.8958 6.25525 53.8958H5.52575C4.67467 53.8958 3.85832 53.7395 3.04197 53.4268C1.13137 52.6278 0.176071 51.0646 0.19344 48.7545V38.0204C0.19344 35.7277 1.14874 34.1819 3.04197 33.3655C3.80621 33.0529 4.63993 32.8966 5.52575 32.8966Z" fill="var(--fill-0, white)"/>
<path d="M21.3684 38.3678L25.4849 38.1768C25.6412 38.7152 25.7281 39.2015 25.7107 39.6358H25.7281V49.9356L21.3684 54H19.041C17.3214 54 15.8624 53.3921 14.6987 52.1936C13.4829 51.0125 12.875 49.5709 12.875 47.8513V46.7397C12.875 45.0723 13.4308 43.6654 14.6119 42.4669C15.7409 41.2858 17.1478 40.6605 18.8326 40.5911C17.7209 41.8416 17.2172 43.3527 17.2172 45.1418C17.2172 45.3849 17.2346 45.6281 17.2693 45.8886C17.3909 44.4296 17.8425 43.2312 18.6068 42.189C19.3884 41.199 20.2916 40.6779 21.3337 40.5911H21.3684V38.3678ZM21.3684 44.9333H19.041C18.0857 44.9333 17.2172 45.7671 17.2172 46.7397V47.8513C17.2172 48.355 17.3909 48.7719 17.7383 49.1193C18.1378 49.4493 18.5373 49.6404 19.041 49.6404H20.7258L21.3684 53.6526V44.9333Z" fill="var(--fill-0, white)"/>
<path d="M31.6878 38.8368H35.5437C34.38 39.0973 33.5115 39.5315 32.8168 40.1395C31.8267 41.0253 31.3578 42.1716 31.4099 43.6133V54H27.0676V43.457C27.0676 42.189 27.5192 41.1121 28.4398 40.2089C29.3256 39.2884 30.4198 38.8368 31.6878 38.8368ZM36.2732 43.1791H32.2436V42.9359C32.3304 41.1121 34.05 39.4447 36.1343 38.8368H36.2732V43.1791Z" fill="var(--fill-0, white)"/>
<path d="M52.498 32.9487V52.402C52.498 52.7321 52.4459 52.9926 52.3243 53.201C52.0985 53.7047 51.6643 53.9653 51.0217 53.9653H50.8306C50.1358 53.9653 49.6148 53.67 49.2674 53.0968C47.791 50.6651 46.5752 48.0771 45.4114 45.5239L46.8531 41.859L45.2377 45.1591C44.0393 47.8166 42.754 50.5436 41.2255 53.0968C40.8607 53.67 40.3397 53.9653 39.6623 53.9653H39.4712C38.8286 53.9653 38.3943 53.7047 38.1685 53.201C38.0469 52.9579 37.9948 52.6973 37.9948 52.402V32.9487H42.4761L42.4934 40.8516L41.3644 43.1269C41.7639 42.5364 42.3545 41.5464 43.1361 40.1395C43.9177 38.7326 44.6125 38.0378 45.203 38.0378H45.2899C46.002 38.0378 46.6968 38.8194 47.3741 40.3653C48.0342 41.9111 48.5379 43.0227 48.8853 43.6654L48.0342 41.4074L47.9994 41.3032L48.0168 32.9487H52.498Z" fill="var(--fill-0, white)"/>
<path d="M62.3484 38.3678L66.4649 38.1768C66.6212 38.7152 66.708 39.2015 66.6907 39.6358H66.708V49.9356L62.3484 54H60.0209C58.3014 54 56.8424 53.3921 55.6787 52.1936C54.4628 51.0125 53.8549 49.5709 53.8549 47.8513V46.7397C53.8549 45.0723 54.4107 43.6654 55.5918 42.4669C56.7208 41.2858 58.1277 40.6605 59.8125 40.5911C58.7009 41.8416 58.1972 43.3527 58.1972 45.1418C58.1972 45.3849 58.2145 45.6281 58.2493 45.8886C58.3709 44.4296 58.8225 43.2312 59.5867 42.189C60.3683 41.199 61.2715 40.6779 62.3136 40.5911H62.3484V38.3678ZM62.3484 44.9333H60.0209C59.0656 44.9333 58.1972 45.7671 58.1972 46.7397V47.8513C58.1972 48.355 58.3709 48.7719 58.7182 49.1193C59.1177 49.4493 59.5172 49.6404 60.0209 49.6404H61.7057L62.3484 53.6526V44.9333Z" fill="var(--fill-0, white)"/>
<path d="M76.9579 46.6702C78.0869 47.4866 78.6601 48.5114 78.6601 49.7446C78.6601 51.9852 76.3673 53.8437 73.5709 53.9305C74.3525 53.67 74.891 53.34 75.1862 52.9752C74.5783 53.4268 73.7099 53.7395 72.5635 53.8958C70.1318 53.6353 68.2039 51.7073 68.0128 49.7446H71.6603C71.6603 50.613 72.2161 51.0473 73.3104 51.0473C74.422 51.0473 74.9778 50.613 74.9778 49.7446C74.9778 49.3798 74.8215 49.0845 74.4915 48.824C73.7967 48.3724 73.1193 47.9034 72.4419 47.4171C71.7645 46.9481 71.0871 46.4792 70.4097 46.0276C69.2807 45.1765 68.7249 44.1517 68.7249 42.9533C68.7249 40.6432 71.1045 38.7673 74.0746 38.7673C74.8215 38.7673 75.551 38.8889 76.2805 39.1494C75.1515 39.4794 74.422 39.8616 74.0746 40.2958C74.6652 39.8442 75.5684 39.5315 76.7842 39.3579C78.1911 40.0526 79.2332 41.5464 79.3722 42.9533H75.7073C75.7073 42.0848 75.1689 41.6506 74.0746 41.6506C72.963 41.6506 72.4072 42.0848 72.4072 42.9533C72.4072 43.318 72.5635 43.6307 72.8761 43.8912C73.5709 44.3602 74.2657 44.8118 74.9431 45.2807C75.6205 45.7497 76.2805 46.2186 76.9579 46.6702Z" fill="var(--fill-0, white)"/>
<path d="M85.1929 38.7673H85.2277C86.2524 39.0973 87.1035 39.601 87.8678 40.2958C88.632 41.0948 89.0489 41.9632 89.101 42.8838V43.1096H85.1929V54H80.8159L80.8333 32.8966H85.1929V38.7673ZM85.8182 38.7673H89.6568C90.9247 38.7673 92.0016 39.2536 92.9048 40.1395C93.7906 41.06 94.2596 42.1195 94.2596 43.3875V54H89.952V43.5264C90.0042 42.0848 89.5526 40.9558 88.5278 40.07C87.8504 39.4621 86.9472 39.0278 85.8182 38.7673Z" fill="var(--fill-0, white)"/>
</g>
</g>
</svg>
