<svg width="78.4556" height="54" overflow="visible" style="display: block;" viewBox="0 0 78.4556 54" fill="none" xmlns="http://www.w3.org/2000/svg">
<g id="_2828158078352">
<path id="Vector" d="M17.53 30.5169V45.9965H13.759V36.7138L10.297 45.9965H7.25393L3.77016 36.6913V45.9965H0V30.5169H4.45393L8.79757 41.2337L13.0978 30.5169H17.53Z" fill="var(--fill-0, #201518)"/>
<path id="Vector_2" d="M28.9079 40.352L26.9895 34.6852L25.0927 40.352H28.9079ZM29.878 43.2623H24.1009L23.1751 45.9965H19.2279L24.8288 30.5169H29.1942L34.7951 45.9965H30.8038L29.878 43.2623Z" fill="var(--fill-0, #201518)"/>
<path id="Vector_3" d="M39.0512 45.5999C38.1543 45.2323 37.4376 44.6885 36.901 43.9678C36.3646 43.2479 36.0813 42.3807 36.0525 41.3664H40.0656C40.1243 41.9391 40.3222 42.3767 40.6608 42.6783C40.9986 42.9799 41.4395 43.1303 41.984 43.1303C42.5422 43.1303 42.983 43.0016 43.3072 42.7442C43.6298 42.4868 43.7922 42.1305 43.7922 41.6744C43.7922 41.2923 43.6627 40.977 43.4061 40.7268C43.1487 40.4766 42.8326 40.2707 42.4577 40.109C42.0829 39.9473 41.5504 39.7639 40.8594 39.558C39.8595 39.2491 39.0431 38.9402 38.4117 38.6313C37.7794 38.3232 37.2356 37.8671 36.7796 37.2647C36.3243 36.6622 36.0966 35.8755 36.0966 34.9054C36.0966 33.4647 36.6178 32.3362 37.6619 31.5205C38.7052 30.7049 40.0654 30.2962 41.7409 30.2962C43.4462 30.2962 44.8209 30.7049 45.8641 31.5205C46.9082 32.3362 47.4664 33.472 47.5405 34.9271H43.4606C43.4317 34.4277 43.2475 34.0342 42.9096 33.7471C42.571 33.4608 42.1382 33.3176 41.609 33.3176C41.1529 33.3176 40.7853 33.4391 40.5061 33.6812C40.227 33.9241 40.0871 34.2732 40.0871 34.7285C40.0871 35.2289 40.3219 35.6181 40.7925 35.8973C41.2631 36.1772 41.9982 36.478 42.9982 36.8014C43.9972 37.14 44.8097 37.4633 45.4346 37.7715C46.0588 38.0803 46.5994 38.5292 47.0554 39.1172C47.5107 39.7052 47.7391 40.4621 47.7391 41.3879C47.7391 42.2703 47.5146 43.0715 47.0658 43.7914C46.6178 44.5122 45.967 45.0849 45.1144 45.5112C44.2617 45.9383 43.2546 46.1506 42.0939 46.1506C40.9613 46.1506 39.947 45.9672 39.0509 45.5996L39.0512 45.5999Z" fill="var(--fill-0, #201518)"/>
<path id="Vector_4" d="M58.72 40.352L56.8015 34.6852L54.9056 40.352H58.72ZM59.6901 43.2623H53.913L52.9871 45.9965H49.04L54.6409 30.5169H59.0063L64.6072 45.9965H60.6158L59.69 43.2623H59.6901Z" fill="var(--fill-0, #201518)"/>
<path id="Vector_5" d="M70.0763 37.4852H72.413C73.1039 37.4852 73.622 37.3163 73.9679 36.9777C74.313 36.6398 74.4859 36.162 74.4859 35.545C74.4859 34.957 74.313 34.4937 73.9679 34.1558C73.622 33.8172 73.1039 33.6482 72.413 33.6482H70.0763V37.4852V37.4852ZM74.1996 45.9965L70.9804 40.1534H70.0763V45.9965H66.3053V30.5169H72.6334C73.8537 30.5169 74.8938 30.7308 75.7537 31.1563C76.6143 31.5835 77.257 32.1675 77.6834 32.9099C78.1097 33.6524 78.3229 34.4793 78.3229 35.3907C78.3229 36.4194 78.0324 37.338 77.4517 38.1465C76.8709 38.9557 76.015 39.5284 74.8833 39.867L78.4556 45.9965H74.1996Z" fill="var(--fill-0, #201518)"/>
<path id="Vector_6" d="M43.7367 18.3456H42.0757L44.2749 12.6345H45.9198L43.7367 18.3456H43.7367ZM47.3444 9.06066H45.6825L46.5255 6.8735L44.4686 1.58948L39.8289 13.7976L44.6263 26.4201H44.7904L49.4607 14.4179L47.3604 9.01887L47.3444 9.06066Z" fill="var(--fill-0, #FF1F00)"/>
<path id="Vector_7" d="M22.1898 18.3456H20.5287L22.7279 12.6345H24.3728L22.1897 18.3456H22.1898ZM24.1356 9.06066L24.8998 7.07784L22.7714 1.60961L13.3416 26.42H17.4769L19.1211 22.1503H20.766L19.1339 26.42H23.1012L27.7634 14.4379L25.6712 9.06058H24.1356V9.06066Z" fill="var(--fill-0, #FF1F00)"/>
<path id="Vector_8" d="M34.7027 18.3457L32.5196 12.6346H34.1646L36.3637 18.3457H34.7027ZM30.4812 7.45351L28.9127 3.34958H30.5576L31.3138 5.31391L32.7568 9.06069H31.0957L30.4811 7.45351H30.4812ZM41.7853 22.1504L39.2193 15.4008L33.3738 0.0209565L33.3658 0.000106894H23.3834H23.3673L23.3753 0.0209565L25.507 5.49885L26.3403 7.63926L28.3746 12.867L33.6489 26.42H35.0308H37.7593L36.3911 22.8421L36.1264 22.1503H36.6542H37.7723L39.2201 25.9108L39.4164 26.42H40.6809H43.4078L42.0484 22.8429L41.7854 22.1503L41.7853 22.1504Z" fill="var(--fill-0, #FF1F00)"/>
<path id="Vector_9" d="M56.7018 18.3456L54.5187 12.6345H56.1636L58.3628 18.3456H56.7017H56.7018ZM52.3267 7.05285L50.911 3.34948H52.5568L53.1593 4.91397L54.756 9.06059H53.0949L52.3267 7.05285ZM55.0713 0H45.0728L47.1328 5.29449L47.9661 7.43409L50.0721 12.8468L55.3544 26.42H59.7577L58.1256 22.1503H59.7706L61.4147 26.42H65.1132L55.0713 0Z" fill="var(--fill-0, #FF1F00)"/>
<g id="Group 1000003152">
<path id="Vector_10" d="M16.2011 51.6005H17.0071C17.2806 51.6005 17.4865 51.5321 17.6249 51.3961C17.7633 51.2594 17.8332 51.076 17.8332 50.8451C17.8332 50.6151 17.7649 50.4348 17.6282 50.3046C17.4914 50.1751 17.2846 50.1099 17.0072 50.1099H16.2012V51.6004L16.2011 51.6005ZM17.7818 53.9621L16.7577 52.1828H16.2011V53.9621H15.4715V49.5147H17.0071C17.349 49.5147 17.6377 49.5742 17.8743 49.6941C18.1116 49.8131 18.2885 49.9732 18.406 50.1735C18.5226 50.3746 18.5813 50.5983 18.5813 50.8452C18.5813 51.1356 18.4977 51.3994 18.3287 51.6359C18.1606 51.8724 17.9008 52.0341 17.5517 52.1193L18.6521 53.9622H17.7818V53.9621Z" fill="var(--fill-0, #FF1F00)"/>
<path id="Vector_11" d="M21.5253 50.1037V51.4092H23.0609V52.0037H21.5253V53.3671H23.2531V53.9624H20.7957V49.5084H23.2531V50.1037H21.5253Z" fill="var(--fill-0, #FF1F00)"/>
<path id="Vector_12" d="M29.0816 53.9624H28.3528L26.1577 50.641V53.9624H25.4281V49.5084H26.1577L28.3528 52.8233V49.5084H29.0816V53.9624Z" fill="var(--fill-0, #FF1F00)"/>
<path id="Vector_13" d="M34.1943 49.5148V50.1101H33.0111V53.9623H32.2815V50.1101H31.091V49.5148H34.1943Z" fill="var(--fill-0, #FF1F00)"/>
<path id="Vector_14" d="M41.6301 52.4581L40.907 50.3916L40.1775 52.4581H41.6301ZM41.8353 53.0533H39.9731L39.653 53.9623H38.8912L40.4847 49.5084H41.3293L42.9228 53.9623H42.1545L41.8352 53.0533H41.8353Z" fill="var(--fill-0, #FF1F00)"/>
<path id="Vector_15" d="M47.8977 50.558C48.1005 50.2122 48.3756 49.9427 48.723 49.7481C49.0705 49.5542 49.4519 49.4568 49.8652 49.4568C50.339 49.4568 50.7597 49.5734 51.1289 49.8059C51.4981 50.0383 51.7659 50.3682 51.9324 50.7945H51.0557C50.9407 50.5596 50.7806 50.3851 50.5754 50.27C50.3711 50.1542 50.1338 50.0971 49.8652 50.0971C49.5708 50.0971 49.3086 50.1631 49.0785 50.295C48.8477 50.4277 48.6674 50.6175 48.5372 50.8645C48.4077 51.1123 48.3425 51.4003 48.3425 51.7285C48.3425 52.0575 48.4077 52.3455 48.5372 52.5924C48.6675 52.8402 48.8477 53.0308 49.0785 53.1651C49.3085 53.2994 49.5708 53.367 49.8652 53.367C50.1339 53.367 50.3712 53.309 50.5754 53.194C50.7806 53.0791 50.9406 52.9036 51.0557 52.6696H51.9324C51.7659 53.0958 51.4981 53.4241 51.1289 53.655C50.7597 53.885 50.339 54 49.8652 54C49.447 54 49.0656 53.9035 48.7198 53.7089C48.3747 53.515 48.1005 53.2455 47.8977 52.8996C47.695 52.5538 47.5937 52.1637 47.5937 51.7285C47.5937 51.2933 47.695 50.9032 47.8977 50.558Z" fill="var(--fill-0, #FF1F00)"/>
<path id="Vector_16" d="M56.5393 52.4581L55.8162 50.3916L55.0866 52.4581H56.5393ZM56.7444 53.0533H54.8823L54.5621 53.9623H53.8004L55.3938 49.5084H56.2384L57.8319 53.9623H57.0636L56.7443 53.0533H56.7444Z" fill="var(--fill-0, #FF1F00)"/>
<path id="Vector_17" d="M60.5323 51.6005H61.3383C61.6117 51.6005 61.8177 51.5321 61.9561 51.3961C62.0944 51.2594 62.1644 51.076 62.1644 50.8451C62.1644 50.6151 62.0961 50.4348 61.9593 50.3046C61.8226 50.1751 61.6158 50.1099 61.3384 50.1099H60.5324V51.6004L60.5323 51.6005ZM62.1129 53.9621L61.0889 52.1828H60.5323V53.9621H59.8027V49.5147H61.3383C61.6802 49.5147 61.9689 49.5742 62.2054 49.6941C62.4427 49.8131 62.6197 49.9732 62.7363 50.1735C62.8538 50.3746 62.9125 50.5983 62.9125 50.8452C62.9125 51.1356 62.828 51.3994 62.6599 51.6359C62.4909 51.8724 62.232 52.0341 61.8821 52.1193L62.9833 53.9622H62.1129V53.9621Z" fill="var(--fill-0, #FF1F00)"/>
</g>
</g>
</svg>
