<svg preserveAspectRatio="xMidYMid meet" overflow="visible" style="display: block;" viewBox="0 0 83.4488 28.3778" fill="none" xmlns="http://www.w3.org/2000/svg">
<g id="Group">
<path id="Vector" d="M25.1807 6.96761H28.9023V8.91003H29.1515C29.6157 8.17949 30.243 7.59497 31.0424 7.15669C31.8417 6.70967 32.727 6.48627 33.6982 6.48627C34.8242 6.48627 35.7782 6.75274 36.5432 7.27703C37.3167 7.80133 37.8668 8.44596 38.1847 9.21093C38.6489 8.46323 39.3021 7.82712 40.1531 7.2943C41.0039 6.75284 42.0354 6.48638 43.2472 6.48638C44.1583 6.48638 44.949 6.63251 45.6108 6.92477C46.2812 7.21703 46.8313 7.62951 47.2611 8.15392C47.6994 8.67821 48.026 9.31421 48.2494 10.0534C48.4729 10.7839 48.5846 11.5918 48.5846 12.4599V21.8283H44.6138V13.1904C44.6138 11.1706 43.7887 10.1564 42.1298 10.1564C41.6055 10.1564 41.1328 10.2768 40.7288 10.5088C40.3249 10.7409 39.9897 11.0503 39.7147 11.4456C39.4482 11.841 39.2333 12.3137 39.0787 12.8552C38.9325 13.3967 38.8552 13.9812 38.8552 14.6085V21.8283H34.8757V13.1904C34.8757 11.1706 34.0075 10.1564 32.2715 10.1564C31.7643 10.1564 31.326 10.2768 30.9392 10.5088C30.5524 10.7409 30.2345 11.0503 29.968 11.4456C29.7016 11.841 29.504 12.3137 29.3577 12.8552C29.2202 13.3967 29.1515 13.9812 29.1515 14.6085V21.8283H25.1806V6.96772L25.1807 6.96761ZM60.8613 20.2554H60.6208C60.1566 20.8141 59.598 21.3039 58.9362 21.7079C58.2744 22.1119 57.432 22.3096 56.4007 22.3096C55.6357 22.3096 54.9137 22.1806 54.2348 21.9314C53.5557 21.6822 52.9713 21.3297 52.4642 20.8915C51.957 20.4445 51.5617 19.9116 51.2781 19.2842C50.9945 18.6568 50.857 17.9692 50.857 17.2215C50.857 16.4565 51.0116 15.7603 51.3125 15.1501C51.6133 14.5313 52.0431 13.9983 52.5846 13.5514C53.1261 13.1045 53.7707 12.7693 54.5099 12.5373C55.2491 12.3052 56.0483 12.1849 56.9165 12.1849C57.8877 12.1849 58.6871 12.2623 59.3145 12.4169C59.9418 12.5631 60.4576 12.7177 60.8615 12.881V12.4254C60.8615 11.6433 60.5436 10.9901 59.9161 10.4744C59.2887 9.95862 58.5152 9.70079 57.5869 9.70079C56.2117 9.70079 55.0513 10.2767 54.0974 11.4283L51.2181 9.46012C52.791 7.47464 54.9483 6.48627 57.6815 6.48627C59.9849 6.48627 61.7382 7.02773 62.9501 8.11075C64.162 9.18513 64.7722 10.7923 64.7722 12.9153V21.8282H60.8614V20.2554H60.8613ZM60.8613 15.7945C60.3973 15.5711 59.9159 15.3906 59.4174 15.2616C58.9275 15.1327 58.386 15.064 57.8016 15.064C56.8475 15.064 56.117 15.2702 55.6013 15.6915C55.0856 16.104 54.8278 16.6111 54.8278 17.2214C54.8278 17.8316 55.077 18.3129 55.567 18.6825C56.0655 19.0435 56.6414 19.2239 57.286 19.2239C57.8103 19.2239 58.2917 19.1294 58.7386 18.9403C59.1855 18.7427 59.5637 18.4934 59.8731 18.1753C60.191 17.8574 60.4317 17.4964 60.6036 17.0838C60.7755 16.6712 60.8614 16.2414 60.8614 15.7945H60.8613ZM67.7975 6.96761H71.5277V8.7639H71.7769C72.1379 8.13643 72.7052 7.59497 73.4701 7.15669C74.2351 6.70967 75.189 6.48627 76.3236 6.48627C77.2777 6.48627 78.1801 6.68399 79.031 7.07931C79.8905 7.47464 80.6469 8.02473 81.3087 8.72084C81.9705 9.41706 82.4862 10.2508 82.8729 11.222C83.2597 12.1932 83.4488 13.2503 83.4488 14.4021C83.4488 15.5538 83.2597 16.611 82.8729 17.5822C82.4862 18.5535 81.9705 19.3871 81.3087 20.0833C80.6469 20.7795 79.8905 21.3296 79.031 21.725C78.1801 22.1118 77.2777 22.3095 76.3236 22.3095C75.189 22.3095 74.2351 22.086 73.4701 21.6477C72.7052 21.2008 72.1379 20.6678 71.7769 20.0405H71.5277L71.7769 22.1635V28.3776H67.7975V6.96772V6.96761ZM75.5072 18.6481C76.0315 18.6481 76.53 18.5451 77.0027 18.3473C77.4754 18.141 77.8965 17.8574 78.2575 17.4964C78.6272 17.1268 78.9193 16.6885 79.1428 16.1642C79.3662 15.6399 79.478 15.0468 79.478 14.4022C79.478 13.7576 79.3663 13.1645 79.1428 12.6402C78.9193 12.1159 78.6272 11.669 78.2575 11.308C77.8965 10.9385 77.4754 10.6547 77.0027 10.4571C76.53 10.2595 76.0315 10.1563 75.5072 10.1563C74.9829 10.1563 74.4759 10.2509 74.0031 10.4485C73.5304 10.6376 73.1092 10.9127 72.7396 11.2822C72.3786 11.6432 72.0863 12.0901 71.8629 12.6144C71.6394 13.1387 71.5277 13.7319 71.5277 14.4022C71.5277 15.064 71.6394 15.6657 71.8629 16.19C72.0864 16.7142 72.3786 17.1612 72.7396 17.5308C73.1091 17.8918 73.5304 18.1668 74.0031 18.3645C74.4758 18.5536 74.9829 18.6481 75.5072 18.6481Z" fill="var(--fill-0, #0B1F41)"/>
<g id="Group_2">
<path id="Vector_2" d="M22.1452 11.073C22.1452 13.5448 21.3471 15.8803 19.8359 17.8323L16.8599 14.8579C17.6007 13.732 17.9906 12.4234 17.9906 11.073C17.9906 7.25715 14.8877 4.15432 11.0736 4.15432C7.25771 4.15432 4.1549 7.25715 4.1549 11.073C4.1549 12.8379 4.82154 14.5176 6.03105 15.8029C7.33499 17.1935 9.1725 17.99 11.0735 17.99C11.2096 17.99 11.3457 17.987 11.4801 17.9777L12.3511 18.8485L14.9496 21.4456L14.8752 21.4734C14.1313 21.7455 13.3656 21.9358 12.5829 22.041C12.085 22.1106 11.5806 22.1446 11.0734 22.1446C10.5598 22.1446 10.0524 22.1106 9.55294 22.041C7.09367 21.7069 4.83687 20.5607 3.08288 18.7295C1.09524 16.6583 0.000245034 13.9393 0.000245034 11.0731C0.000245034 4.96667 4.9668 0 11.0735 0C17.1783 0 22.145 4.96667 22.145 11.0731L22.1452 11.073Z" fill="var(--fill-0, #0B1F41)"/>
<path id="Vector_3" d="M22.7347 22.0411H16.8585L15.7109 20.8933L13.0071 18.1912L8.29895 13.4829H14.175L19.2421 18.55L22.7347 22.0411Z" fill="var(--fill-0, #0B1F41)"/>
<path id="Vector_4" d="M9.55387 22.0411H12.584C12.086 22.1107 11.5817 22.1447 11.0744 22.1447C10.5609 22.1447 10.0536 22.1107 9.55399 22.0411H9.55387Z" fill="var(--fill-0, #0B1F41)"/>
</g>
</g>
</svg>
