<svg preserveAspectRatio="xMidYMid meet" overflow="visible" style="display: block;" viewBox="0 0 151.302 42" fill="none" xmlns="http://www.w3.org/2000/svg">
<g id="Group">
<path id="Vector" d="M52.51 42C47.8857 42 44.1336 38.2518 44.1336 33.6235V0.0039229C48.7579 0.0039229 52.51 3.7521 52.51 8.38035V42Z" fill="var(--fill-0, white)"/>
<path id="Vector_2" d="M59.8255 7.0838H58.529C56.5763 7.0838 54.9891 5.50045 54.9891 3.54386C54.9891 1.59119 56.5724 0.0039229 58.529 0.0039229H59.8255C61.7782 0.0039229 63.3655 1.58726 63.3655 3.54386C63.3655 5.49652 61.7821 7.0838 59.8255 7.0838ZM54.9891 42V19.9392C54.9891 15.3149 58.7372 11.5627 63.3655 11.5627V33.6235C63.3655 38.2479 59.6173 42 54.9891 42Z" fill="var(--fill-0, white)"/>
<path id="Vector_3" d="M89.9956 38.6958C87.4182 40.8959 84.1062 42 80.0555 42C75.3761 42 71.6201 40.5659 68.7913 37.6939C65.9586 34.8219 64.5441 31.0108 64.5441 26.2529C64.5441 21.495 65.9703 17.3854 68.8188 14.3994C71.6712 11.4095 75.4547 9.91654 80.1733 9.91654C84.224 9.91654 87.5282 10.9498 90.082 13.0125C92.6397 15.0752 94.0934 17.8804 94.447 21.4164H92.0543C89.2884 21.4164 86.6049 20.2574 84.8684 18.1004C83.8311 16.8118 82.2831 16.1635 80.2323 16.1635C77.9496 16.1635 76.1737 17.0396 74.8929 18.788C73.616 20.5364 72.9756 22.9644 72.9756 26.0722C72.9756 29.18 73.5963 31.4509 74.8339 33.1206C76.0716 34.7904 77.8121 35.6273 80.0555 35.6273C82.2989 35.6273 83.9647 34.8651 85.0845 33.3367C86.8603 30.9165 89.6852 29.4903 92.6869 29.4903H94.6238C94.1131 33.4232 92.569 36.4916 89.9956 38.6918V38.6958Z" fill="var(--fill-0, white)"/>
<path id="Vector_4" d="M123.918 42H117.144C116.343 42 115.6 41.5835 115.18 40.9038L107.483 28.4924L104.065 31.6748V39.3362C104.065 40.8056 102.87 41.9961 101.405 41.9961H95.8652V8.19962C95.8652 3.66959 99.5387 0 104.065 0V22.4733L113.938 12.435C114.488 11.8771 115.239 11.5628 116.024 11.5628H121.709C122.786 11.5628 123.32 12.8711 122.554 13.6254L113.207 22.8269L124.849 40.2634C125.344 41.002 124.813 41.9961 123.921 41.9961L123.918 42Z" fill="var(--fill-0, white)"/>
<path id="Vector_5" d="M142.517 19.5267C142.281 17.9944 141.7 16.91 140.777 16.2814C139.853 15.6528 138.506 15.3385 136.738 15.3385C135.245 15.3385 134.082 15.6056 133.257 16.136C132.432 16.6664 132.019 17.4051 132.019 18.348C132.019 19.4481 132.491 20.2142 133.433 20.6464C134.376 21.0786 136.07 21.55 138.506 22.0608C138.938 22.1394 139.252 22.1983 139.449 22.2376C140.863 22.5126 141.995 22.7602 142.839 22.9762C143.684 23.1923 144.717 23.5459 145.935 24.037C147.153 24.5282 148.096 25.0782 148.768 25.6872C149.436 26.2962 150.025 27.1134 150.536 28.1349C151.047 29.1564 151.302 30.3351 151.302 31.6748C151.302 34.8612 150.065 37.3757 147.585 39.2262C145.11 41.0728 141.708 42 137.382 42C133.056 42 129.85 41.116 127.179 39.3441C127.151 39.3244 127.124 39.3087 127.1 39.289C123.497 36.8571 125.293 31.2034 129.642 31.2034H131.072C131.347 34.5861 133.512 36.2756 137.559 36.2756C139.248 36.2756 140.596 35.9298 141.598 35.2423C142.6 34.5547 143.102 33.6393 143.102 32.4999C143.102 31.3605 142.651 30.5551 141.747 30.0797C140.843 29.6082 139.17 29.0975 136.734 28.5474C136.537 28.5081 136.38 28.4688 136.262 28.4296C135.987 28.351 135.378 28.2135 134.435 28.017C133.492 27.8206 132.832 27.6713 132.459 27.5731C132.086 27.4748 131.477 27.3059 130.632 27.0702C129.787 26.8344 129.167 26.6066 128.774 26.3905C128.381 26.1744 127.858 25.8993 127.21 25.5654C126.562 25.2314 126.079 24.866 125.764 24.4732C125.45 24.0803 125.104 23.6167 124.731 23.0863C124.358 22.5559 124.102 21.9547 123.965 21.2868C123.827 20.6189 123.757 19.8921 123.757 19.1063C123.757 16.1164 124.916 13.818 127.238 12.2071C129.556 10.5963 132.84 9.79085 137.087 9.79085C140.902 9.79085 144.03 10.5766 146.466 12.1482C146.489 12.1639 146.513 12.1796 146.54 12.1953C149.837 14.3641 148.222 19.5188 144.273 19.5188H142.513L142.517 19.5267Z" fill="var(--fill-0, white)"/>
<path id="Vector_6" d="M31.6866 26.9876V29.5846C31.6866 31.7848 29.3018 33.1599 27.3962 32.0598L12.9064 23.6913C11.0009 22.5912 11.0009 19.841 12.9064 18.7409L27.3962 10.3723C29.3018 9.27221 31.6866 10.6473 31.6866 12.8475V15.4445H40.7506C38.2518 6.77343 30.2604 0.432179 20.7839 0.432179C9.30757 0.432179 0 9.73582 0 21.2161C0 32.6963 9.30757 41.996 20.7839 41.996C30.2604 41.996 38.2557 35.6548 40.7545 26.9837H31.6866V26.9876Z" fill="var(--fill-0, white)"/>
</g>
</svg>
