<svg width="103.841" height="54" overflow="visible" style="display: block;" viewBox="0 0 103.841 54.0001" fill="none" xmlns="http://www.w3.org/2000/svg">
<g id="Group 7">
<g id="Group 3">
<g id="Vector">
<path d="M14.8618 16.6223C16.7427 18.3582 17.6964 20.5149 17.6964 23.0661C17.6964 27.8003 13.9081 31.6403 9.24555 31.8507C10.5436 31.2983 11.4444 30.6145 11.9212 29.8518C10.9145 30.7986 9.45749 31.4299 7.57659 31.7718C3.52338 31.2194 0.317899 27.1691 0 23.0661H6.06657C6.06657 24.8809 6.99377 25.8014 8.82169 25.8014C10.6496 25.8014 11.5768 24.8809 11.5768 23.0661C11.5768 22.3034 11.3119 21.6721 10.7821 21.1461C9.64293 20.173 8.50379 19.1998 7.36465 18.2004C6.22552 17.2009 5.11287 16.2278 4.00022 15.281C2.11932 13.5188 1.19212 11.3621 1.19212 8.83718C1.19212 3.99777 5.16586 0.0526023 10.0668 0.0526023C11.3119 0.0526023 12.557 0.315614 13.7491 0.841636C11.8682 1.55177 10.6496 2.3408 10.0668 3.26134C11.047 2.2882 12.557 1.63067 14.5968 1.28876C16.9546 2.73532 18.6501 5.89145 18.8885 8.83718H12.7954C12.8219 8.81088 12.8219 8.81088 12.8219 8.83718C12.8219 7.0224 11.8947 6.10186 10.0668 6.10186C8.23888 6.10186 7.31167 7.0224 7.31167 8.83718C7.31167 9.59991 7.57658 10.2311 8.10642 10.7835L11.5238 13.7292C12.663 14.7023 13.7756 15.6755 14.8618 16.6223Z" fill="var(--fill-0, #0B1F41)"/>
<path d="M33.3698 8.28486L39.6483 7.99554C39.8868 8.81088 40.0192 9.54731 39.9927 10.2048H40.0192V25.8014L33.3698 31.9559H29.82C27.1973 31.9559 24.972 31.0353 23.1971 29.2206C21.3427 27.4321 20.4155 25.2491 20.4155 22.6453V20.962C20.4155 18.4371 21.2632 16.3067 23.0646 14.4919C24.7866 12.7034 26.9324 11.7566 29.5021 11.6514C27.8066 13.5451 27.0383 15.8333 27.0383 18.5423C27.0383 18.9105 27.0648 19.2787 27.1178 19.6732C27.3033 17.464 27.992 15.6492 29.1577 14.0711C30.3498 12.5719 31.7273 11.7829 33.3168 11.6514H33.3698V8.28486ZM33.3698 18.2267H29.82C28.3629 18.2267 27.0383 19.4891 27.0383 20.962V22.6453C27.0383 23.408 27.3033 24.0392 27.8331 24.5653C28.4424 25.065 29.0517 25.3543 29.82 25.3543H32.3896L33.3698 31.4299V18.2267Z" fill="var(--fill-0, #0B1F41)"/>
<path d="M48.1691 8.88978H48.222C49.7851 9.3895 51.0831 10.1522 52.2488 11.2043C53.4144 12.4141 54.0502 13.7292 54.1297 15.1232V15.4651H48.1691V31.9559H41.4932L41.5197 8.91608H48.1691V8.88978ZM49.1228 8.88978H54.9774C56.9113 8.88978 58.5538 9.62621 59.9313 10.9676C61.2824 12.3615 61.9977 13.9659 61.9977 15.8859V31.9559H55.4278V16.0963C55.5072 13.9133 54.8185 12.2037 53.2554 10.8624C52.2223 9.94183 50.8447 9.2843 49.1228 8.88978Z" fill="var(--fill-0, #0B1F41)"/>
<path d="M75.5783 8.28486L81.8568 7.99554C82.0952 8.81088 82.2277 9.54731 82.2012 10.2048H82.2277V25.8014L75.5783 31.9559H72.0284C69.4058 31.9559 67.1805 31.0353 65.4055 29.2206C63.5511 27.4321 62.6239 25.2491 62.6239 22.6453V20.962C62.6239 18.4371 63.4717 16.3067 65.2731 14.4919C66.995 12.7034 69.1408 11.7566 71.7105 11.6514C70.0151 13.5451 69.2468 15.8333 69.2468 18.5423C69.2468 18.9105 69.2733 19.2787 69.3263 19.6732C69.5117 17.464 70.2005 15.6492 71.3661 14.0711C72.5583 12.5719 73.9358 11.7829 75.5253 11.6514H75.5783V8.28486ZM75.5783 18.2267H72.0284C70.5714 18.2267 69.2468 19.4891 69.2468 20.962V22.6453C69.2468 23.408 69.5117 24.0392 70.0416 24.5653C70.6509 25.065 71.2602 25.3543 72.0284 25.3543H74.5981L75.5783 31.4299V18.2267Z" fill="var(--fill-0, #0B1F41)"/>
<path d="M103.332 31.9559H96.6295C95.04 31.8244 93.6625 31.0353 92.4704 29.5362C91.3047 27.9581 90.616 26.1433 90.4305 23.934C90.3775 24.3285 90.351 24.7231 90.351 25.065C90.351 27.774 91.1193 30.0622 92.8148 31.9559C90.2451 31.8507 88.0993 30.9038 86.3773 29.1154C84.5759 27.3006 83.7281 25.1702 83.7281 22.6453V18.2267C83.7281 15.6229 84.6554 13.4399 86.5098 11.6514C88.2847 9.83662 90.51 8.91608 93.1327 8.91608H96.6825V0H103.332V31.9559ZM95.7023 15.5177H93.1327C92.3644 15.5177 91.7551 15.807 91.1458 16.3067C90.616 16.8327 90.351 17.464 90.351 18.2267V22.6453C90.351 24.1181 91.6756 25.3806 93.1327 25.3806H96.6825V9.44211L95.7023 15.5177Z" fill="var(--fill-0, #0B1F41)"/>
</g>
</g>
<g id="Breakdown">
<path d="M3.32826 36.8205H4.51794C6.59987 36.8205 8.10113 37.8969 9.03588 40.0355C9.26248 40.5453 9.37578 41.126 9.37578 41.7775C9.37578 43.038 9.20583 44.1852 8.25692 45.2049C9.20583 46.1255 9.68737 47.3151 9.68737 48.7598C9.68737 50.7567 8.72429 52.3429 6.81231 53.5326C6.09001 53.8159 5.38187 53.9575 4.71622 53.9433H0.113303L0 53.8159V39.6531L3.32826 36.8205ZM3.61152 40.0071V43.392H4.34798C6.40159 43.1088 5.97671 40.0071 4.34798 40.0071H3.61152ZM3.61152 47.0177V50.431C5.70761 50.431 7.76122 50.261 8.73846 47.995C7.86036 49.0288 6.86897 49.6237 5.77843 49.7795C6.45824 48.8022 5.93422 47.0177 4.68789 47.0177H3.61152Z" fill="var(--fill-0, #0B1F41)"/>
<path d="M14.5469 41.6217H17.6911C16.7421 41.8341 16.034 42.1882 15.4675 42.6839C14.6602 43.4062 14.2778 44.341 14.3203 45.5165V53.9858H10.7796V45.389C10.7796 44.3551 11.1478 43.477 11.8985 42.7406C12.6208 41.9899 13.513 41.6217 14.5469 41.6217ZM18.2859 45.1624H15.0001V44.9641C15.0709 43.477 16.4731 42.1174 18.1726 41.6217H18.2859V45.1624Z" fill="var(--fill-0, #0B1F41)"/>
<path d="M23.2446 40.1204H25.1424C26.5445 40.1204 27.7342 40.6161 28.6831 41.5934C29.6745 42.5564 30.1702 43.732 30.1702 45.1341V45.304C30.1702 46.6637 29.717 47.8108 28.7539 48.7881C27.8333 49.7512 26.6861 50.261 25.3123 50.3177C26.2188 49.2979 26.6295 48.0658 26.6295 46.607C26.6295 46.4229 26.6153 46.2104 26.587 45.998C26.4879 47.1877 26.1196 48.1649 25.4965 49.0147C24.8591 49.822 24.1227 50.2469 23.2729 50.3177H23.2446V50.955H28.7539V54H23.457C22.6639 54 21.715 53.6318 20.9785 53.0511C20.2279 52.4704 19.6897 51.6348 19.6897 50.7284V43.4345L23.2446 40.1204ZM23.2446 46.777H25.1424C25.9213 46.777 26.6295 46.0971 26.6295 45.304V45.1341C26.6295 44.7234 26.4879 44.3834 26.2046 44.1002C25.8789 43.8311 25.5531 43.6753 25.1424 43.6753H23.7686L23.2446 40.4037V46.777Z" fill="var(--fill-0, #0B1F41)"/>
<path d="M38.188 41.2393L41.5446 41.0835C41.6721 41.5226 41.7429 41.9191 41.7288 42.2732H41.7429V50.6717L38.188 53.9858H36.2902C34.8881 53.9858 33.6984 53.4901 32.7495 52.5129C31.7581 51.5498 31.2624 50.3743 31.2624 48.9722V48.0658C31.2624 46.7061 31.7156 45.559 32.6787 44.5817C33.5993 43.6187 34.7465 43.1088 36.1203 43.0521C35.2139 44.0719 34.8031 45.304 34.8031 46.7628C34.8031 46.9611 34.8173 47.1594 34.8456 47.3718C34.9448 46.1821 35.313 45.2049 35.9362 44.3551C36.5735 43.5478 37.31 43.123 38.1597 43.0521H38.188V41.2393ZM38.188 46.5928H36.2902C35.5113 46.5928 34.8031 47.2727 34.8031 48.0658V48.9722C34.8031 49.3829 34.9448 49.7228 35.228 50.0061C35.5538 50.2752 35.8795 50.431 36.2902 50.431H37.664L38.188 53.7026V46.5928Z" fill="var(--fill-0, #0B1F41)"/>
<path d="M46.39 36.778V43.6753C46.5175 43.5337 46.6591 43.392 46.8149 43.2504L49.1801 41.1827C48.6136 41.9758 48.302 42.6981 48.2029 43.4345C48.0754 44.5109 48.3728 45.4598 49.2084 46.3238L54.9302 52.8811L51.2054 54L46.4467 48.5615C46.4325 48.5473 46.4183 48.5473 46.4183 48.5332L46.39 48.5048V53.9858H42.8351V36.778H46.39ZM54.1087 41.5792L49.4775 45.6156L49.35 45.4598C48.8827 44.8508 48.6844 44.1002 48.741 43.2079C48.7977 42.4007 49.0526 41.6075 49.5483 40.8569L51.786 38.9166L54.1087 41.5792Z" fill="var(--fill-0, #0B1F41)"/>
<path d="M65.9081 53.9858H62.3249C61.4751 53.915 60.7386 53.4901 60.1013 52.6829C59.4782 51.8331 59.1099 50.8559 59.0108 49.6662C58.9825 49.8786 58.9683 50.0911 58.9683 50.2752C58.9683 51.7339 59.379 52.9661 60.2854 53.9858C58.9116 53.9292 57.7645 53.4193 56.8439 52.4563C55.8808 51.479 55.4276 50.3318 55.4276 48.9722V46.5928C55.4276 45.1907 55.9233 44.0152 56.9147 43.0521C57.8636 42.0749 59.0533 41.5792 60.4554 41.5792H62.3532V36.778H65.9081V53.9858ZM61.8292 45.1341H60.4554C60.0447 45.1341 59.7189 45.2899 59.3932 45.559C59.1099 45.8422 58.9683 46.1821 58.9683 46.5928V48.9722C58.9683 49.7653 59.6764 50.4451 60.4554 50.4451H62.3532V41.8625L61.8292 45.1341Z" fill="var(--fill-0, #0B1F41)"/>
<path d="M71.2916 41.5367H71.3483C70.7393 42.5989 70.4136 43.5337 70.3711 44.341C70.6402 43.2504 71.2492 42.3298 72.1981 41.5509C73.9543 41.65 75.1864 42.4573 75.9087 43.9727C76.0928 44.5392 76.1778 45.0633 76.1778 45.5306V49.822C76.1778 51.7056 75.413 52.9661 73.8976 53.6176C73.232 53.8584 72.5663 53.9858 71.8723 53.9858H71.8015C72.3963 52.9944 72.7221 52.0597 72.7929 51.1958C72.4672 52.3429 71.8582 53.2777 70.9517 53.9858C69.1814 53.915 67.9492 53.1077 67.2411 51.564C67.0853 50.955 67.0003 50.4451 67.0003 50.0061V45.7148C67.0003 43.8594 67.7509 42.5848 69.2664 41.9191C69.932 41.6642 70.5977 41.5367 71.2916 41.5367ZM72.8637 49.2413L72.8496 46.0971C72.8496 44.2843 70.3002 44.1568 70.3002 46.3096L70.3144 49.4396C70.3144 51.2666 72.8637 51.394 72.8637 49.2413Z" fill="var(--fill-0, #0B1F41)"/>
<path d="M91.7869 41.565V53.0369C91.7869 53.221 91.7444 53.3768 91.6453 53.5043C91.4612 53.8017 91.1071 53.9575 90.5831 53.9575H90.4273C89.8466 53.9575 89.4217 53.7876 89.1385 53.4476C87.9346 52.0172 86.9291 50.4735 85.9802 48.9864L87.1557 46.8195L85.8385 48.7598C84.8613 50.346 83.7991 51.9322 82.5528 53.4476C82.2554 53.7876 81.8305 53.9575 81.264 53.9575H81.1082C80.5841 53.9575 80.2301 53.8017 80.046 53.5043C79.9468 53.3627 79.9043 53.2069 79.9043 53.0369V41.565H83.5725L83.5867 46.2246L82.6661 47.5701C82.9918 47.216 83.4734 46.6353 84.1248 45.7997C84.7622 44.9783 85.3287 44.5676 85.8102 44.5676H85.881C86.4617 44.5676 87.0282 45.0208 87.5806 45.9414C88.1329 46.8619 88.5436 47.4993 88.8269 47.8817L88.1329 46.5504L88.1046 46.4937L88.1188 41.565H91.7869Z" fill="var(--fill-0, #0B1F41)"/>
<path d="M96.4482 41.565H96.4765C97.3121 41.8341 98.0061 42.2449 98.6293 42.8114C99.2524 43.4629 99.5923 44.171 99.6348 44.9216V45.1058H96.4482V53.9858H92.8792L92.8933 41.5792H96.4482V41.565ZM96.9581 41.565H100.088C101.122 41.565 102 41.9616 102.736 42.6839C103.459 43.4345 103.841 44.2985 103.841 45.3324V53.9858H100.329V45.4457C100.371 44.2701 100.003 43.3496 99.1675 42.6273C98.6151 42.1316 97.8786 41.7775 96.9581 41.565Z" fill="var(--fill-0, #0B1F41)"/>
</g>
</g>
</svg>
