<svg preserveAspectRatio="xMidYMid meet" overflow="visible" style="display: block;" viewBox="0 0 108.98 23.6912" fill="none" xmlns="http://www.w3.org/2000/svg">
<g id="Group 28">
<path id="R" d="M15.455 13.4317L21.0064 23.6912H16.2089L13.8444 19.2364C12.5422 17.0428 11.2743 13.938 9.8693 13.938H7.05932C5.51725 13.938 4.24933 15.1866 4.24933 16.7053V23.6912H8.31635e-05V16.7053C8.31635e-05 12.858 3.15275 9.7532 7.05932 9.7532H12.7821C16.5173 9.7532 16.5173 4.18476 12.7821 4.18476H8.31635e-05V0H12.7821C20.5267 0 22.5828 10.5632 15.455 13.4317Z" fill="var(--fill-0, #0D1821)"/>
<path id="O" d="M33.6415 0C40.16 0 45.4872 5.29412 45.4872 11.8456C45.4872 18.364 40.16 23.6912 33.6415 23.6912C27.09 23.6912 21.7958 18.364 21.7958 11.8456C21.7958 5.29412 27.09 0 33.6415 0ZM33.6415 19.5882C37.8769 19.5882 41.3842 16.0478 41.3842 11.8125C41.3842 7.5772 37.8769 4.10294 33.6415 4.10294C29.4062 4.10294 25.8988 7.5772 25.8988 11.8125C25.8988 16.0478 29.4062 19.5882 33.6415 19.5882Z" fill="var(--fill-0, #0D1821)"/>
<path id="Y" d="M79.4028 23.6912V13.198L71.8636 0H76.5493L83.5478 12.644V23.6912H79.4028ZM84.4489 11.4057C84.1886 11.0363 83.9082 10.5258 83.6079 9.87403C83.3075 9.21142 83.1073 8.49993 83.0071 7.73955C82.907 6.96831 83.0272 6.23509 83.3676 5.53989L86.191 0H90.8167L84.4489 11.4057Z" fill="var(--fill-0, #0D1821)"/>
<path id="A" d="M108.98 7.04695V23.6912H104.857V7.04695C104.857 5.30199 104.591 4.16106 103.46 4.16106C101.565 4.16106 99.8689 7.11406 99.1041 8.35567L89.2618 23.6912H84.3406L94.183 8.35567C97.5746 3.05368 99.7691 0 104.291 0C107.084 0 108.98 2.61744 108.98 7.04695Z" fill="var(--fill-0, #0D1821)"/>
<path id="Rectangle 4" d="M48.3306 10.0295H71.8641V13.6622H48.3306V10.0295Z" fill="var(--fill-0, #0D1821)"/>
</g>
</svg>
