<svg preserveAspectRatio="xMidYMid meet" overflow="visible" style="display: block;" viewBox="0 0 18.8601 20.8055" fill="none" xmlns="http://www.w3.org/2000/svg">
<g id="Group">
<path id="Vector" d="M0.00210495 11.3732C0.00912129 11.4771 0.198913 11.5974 0.571481 11.7343C1.10192 11.929 1.52184 12.0827 1.90388 12.3384C3.04369 13.1005 3.37416 14.5426 3.44993 15.6183C3.53939 16.8772 3.05211 18.6498 2.86898 19.3171C2.49641 20.6708 2.49747 20.6865 2.50589 20.8055C2.5322 20.796 2.56798 20.7834 2.59429 20.7729C4.30137 14.4584 7.12509 14.5552 9.19316 15.7488C9.80358 16.1015 10.0825 16.2625 10.0888 15.8488C10.0902 15.7801 9.84287 15.6215 9.34682 15.3731C8.57958 14.9889 7.8555 14.6257 7.42294 13.6921C6.02107 10.6669 8.13966 6.68918 9.15738 4.77768C9.3798 4.35945 9.45452 4.12717 9.38155 4.08086C9.27701 4.08577 9.0395 4.46295 8.66904 5.2124C7.39242 7.79124 5.25594 12.1079 2.32592 11.8679C1.52605 11.8027 0.876692 11.2722 0.0968257 11.1427C0.0505179 11.2016 0.00315735 11.2974 0 11.3722" fill="var(--fill-0, white)"/>
<path id="Vector_2" d="M12.9115 2.91463C12.9063 2.93673 12.9115 2.96831 12.9105 2.99146C13.4451 3.54197 14.3608 3.5967 14.7144 4.38089C15.2196 5.50189 15.0217 6.93658 14.1271 8.64599C13.5693 9.71226 13.5925 9.77857 13.623 9.86278C13.6388 9.86594 13.6588 9.87015 13.6746 9.87436C13.8587 9.747 14.2145 8.92492 14.386 8.5302C15.5269 5.89451 16.9045 5.424 17.5381 5.56189C17.8223 5.62294 18.1075 5.80399 18.3159 5.93451C18.7632 6.2166 18.7768 6.20713 18.8168 6.17766C18.8505 6.1524 18.8558 6.09029 18.86 5.9903C18.5358 5.79557 18.2033 5.60084 17.8623 5.404C17.2161 4.93034 16.4993 3.37882 17.1708 1.04838C17.4413 0.109469 17.3676 0.0410511 17.3234 0C17.2687 0.0347355 17.2318 0.057892 17.0761 0.821021C16.4951 3.66618 14.5818 3.55565 14.1397 3.37566C13.7735 3.18725 13.403 2.99883 13.0305 2.81252C12.9852 2.81989 12.9378 2.82726 12.9115 2.91463Z" fill="var(--fill-0, white)"/>
</g>
</svg>
