<svg preserveAspectRatio="xMidYMid meet" overflow="visible" style="display: block;" viewBox="0 0 38.1094 46" fill="none" xmlns="http://www.w3.org/2000/svg">
<g id="Group">
<path id="Vector" d="M27.3717 26.743C27.0452 26.4165 27.0202 25.8955 27.3145 25.54C30.5693 21.6113 30.638 15.7985 27.2212 11.7752C23.3888 7.26514 16.6284 6.71418 12.1183 10.5447C7.6083 14.377 7.05746 21.1391 10.8896 25.6492C14.1841 29.53 19.6517 30.4779 23.9855 28.2256C24.6844 27.8624 25.5356 27.9797 26.0926 28.5367L26.5217 28.9658C29.1641 31.6081 29.1641 35.8919 26.5212 38.5339C24.0565 40.9976 21.4442 43.6094 19.0536 46L5.58257 32.5272C-1.86086 25.0855 -1.86086 13.0216 5.58257 5.5799C13.0224 -1.85997 25.0863 -1.85997 32.5281 5.5799C37.5286 10.5801 39.1688 17.6682 37.449 24.038C36.2401 28.516 30.6512 30.0226 27.3716 26.7429L27.3717 26.743Z" fill="var(--fill-0, #F5A623)"/>
<path id="Vector_2" d="M25.3197 18.8381C25.3197 22.2982 22.5148 25.1033 19.0545 25.1033C15.5944 25.1033 12.7894 22.2984 12.7894 18.8381C12.7894 15.3779 15.5943 12.5729 19.0545 12.5729C22.5146 12.5729 25.3197 15.3778 25.3197 18.8381Z" fill="var(--fill-0, #0B1F41)"/>
</g>
</svg>
