<svg preserveAspectRatio="xMidYMid meet" overflow="visible" style="display: block;" viewBox="0 0 358 170" fill="none" xmlns="http://www.w3.org/2000/svg">
<g id="LOGO 0 2" clip-path="url(#clip0_80_4618)">
<g id="Group">
<g id="Group_2">
<path id="Vector" d="M39.5766 22.2347L43.8143 25.4281L44.0398 36.6002L55.7523 48.2983L56.4758 48.4908V30.3778H60.5492V48.4908C60.8686 48.5472 61.019 48.458 61.2727 48.2983C61.672 48.04 63.1143 46.5889 63.5842 46.1287C66.8118 42.9964 69.8186 39.5917 73.0698 36.4781L73.2154 25.4281L77.2511 22.4367V33.8342H89.471L87.0844 37.9057C83.7205 38.0748 80.2204 37.4925 76.9316 38.3002L60.5492 55.103V89.8074H56.7812L56.4758 89.5021V54.901L39.7739 38.2157L29.9406 37.8682L27.5587 33.8342H39.5719V22.2301L39.5766 22.2347Z" fill="var(--fill-0, #F7F3EB)"/>
<path id="Vector_2" d="M60.3489 18.7734V26.9165C59.1697 26.9681 57.4689 27.1513 56.4776 26.6112V18.7734H60.3489Z" fill="var(--fill-0, #F7F3EB)"/>
</g>
<path id="Vector_3" d="M115.733 122.479C115.926 93.0764 116.382 63.5471 115.499 34.1775C110.941 1.77421 69.5834 -2.29734 43.5791 0.896035C21.7608 3.56813 1.27215 13.9325 0.0647265 38.4087C0.379503 67.0833 -0.53194 95.8378 0.539241 124.461C6.05958 156.972 46.5483 160.644 73.0742 157.592C78.4348 156.977 84.5142 155.582 89.5741 153.727C90.5091 153.384 94.7327 151.379 95.226 151.515C95.6254 151.623 98.2939 154.596 98.7355 155.145C101.493 158.578 103.147 162.434 104.176 166.702L109.828 169.802C109.283 161.673 104.81 154.615 99.0409 149.144C108.602 143.287 114.629 133.698 115.733 122.479ZM105.355 120.45C104.759 128.72 101.202 136.727 94.9629 142.226C94.4226 142.705 92.9568 144.095 92.3272 143.856L83.147 138.544L80.9107 142.01C83.194 143.546 86.2384 144.663 88.3902 146.34C88.5593 146.471 88.7613 146.34 88.6486 146.8C81.1409 150.674 72.8628 152.778 64.4155 153.318L64.1993 133.28C64.5611 126.499 64.4014 119.699 64.1993 112.922C64.0772 108.672 63.8282 104.098 66.0739 100.327C67.629 97.7115 72.6889 90.6532 73.6286 89.869C73.8776 89.6623 74.1782 89.6388 74.4836 89.606L89.0761 89.6201C89.0761 89.6201 89.0761 89.6107 89.0761 89.606H91.5849C94.4508 91.4093 96.4663 94.3256 98.9329 96.622L103.523 95.4996L95.0193 86.7272L103.208 78.7955L98.2516 77.9784L90.2131 85.5673C86.6707 85.4358 83.1141 85.5673 79.567 85.5532L79.5811 85.5673C78.4677 85.5438 76.781 85.5063 76.2125 85.525C76.1984 85.525 76.1891 85.4217 76.1891 85.4123C76.1844 85.3701 76.175 85.3278 76.1703 85.2855C76.1703 85.248 76.1515 85.2057 76.1656 85.1681L88.9352 70.2579L99.2852 70.056C100.013 69.4737 100.22 68.5391 100.695 67.7643C101.024 67.2289 101.954 66.2897 102.076 65.8858C102.264 65.2706 101.601 65.7872 101.569 65.7872H89.5553L89.2499 65.4819V54.183L85.1719 57.1745C84.937 60.5698 85.4914 64.3831 85.186 67.7267C85.1532 68.0742 85.1719 68.4123 84.9464 68.7082L62.6349 94.4853L54.6809 94.4289C46.9336 85.9007 39.6749 76.9593 32.0216 68.3372C31.3921 67.1538 31.8384 65.8905 31.8384 64.6742C31.8384 63.2325 32.0686 58.2875 31.5988 57.3623L27.5537 54.385L27.347 65.7825H15.3338L17.913 69.8212L28.1644 70.1593L41.1971 85.2198C41.2065 85.2339 41.2112 85.2902 41.2018 85.3513C41.1971 85.417 41.183 85.4828 41.1689 85.4969C41.0468 85.633 38.4487 85.6659 37.9648 85.6847C37.3493 85.7082 36.7339 85.727 36.1231 85.7411H36.0902C32.5572 85.7552 29.0054 85.6331 25.4771 85.7645L17.4385 78.1756L12.4867 78.9927L20.6756 86.9245L12.1719 95.6969L16.762 96.8192C19.2285 94.5228 21.244 91.6065 24.1052 89.8079L35.8741 89.6435H43.2972C43.6637 89.7516 51.2089 100.36 52.3271 102.985C53.5439 105.85 53.013 109.273 53.013 112.307V153.309C33.3089 152.957 11.8477 142.4 10.6497 120.445V38.0049C12.6605 9.56509 43.5979 2.83084 67.1686 5.34327C86.0928 7.36261 104.27 17.1728 105.36 38.2021V120.45H105.355Z" fill="var(--fill-0, #F7F3EB)"/>
</g>
<g id="QTree">
<path d="M189.904 88.1607C189.904 94.6077 188.695 100.316 186.277 105.286C183.994 110.121 180.703 113.814 176.405 116.366L188.695 129.462L180.435 136.11L168.548 119.59C166.399 119.993 164.385 120.194 162.504 120.194C154.311 120.194 147.73 117.239 142.76 111.33C137.791 105.42 135.306 97.6969 135.306 88.1607C135.306 78.3559 137.791 70.4986 142.76 64.5889C147.73 58.6791 154.311 55.7243 162.504 55.7243C170.697 55.7243 177.279 58.6791 182.248 64.5889C187.352 70.4986 189.904 78.3559 189.904 88.1607ZM162.504 112.135C168.011 112.135 172.309 110.054 175.398 105.89C178.487 101.592 180.032 95.6822 180.032 88.1607C180.032 80.5049 178.487 74.5952 175.398 70.4315C172.309 66.1335 168.011 63.9845 162.504 63.9845C156.997 63.9845 152.699 66.1335 149.61 70.4315C146.521 74.5952 144.976 80.5049 144.976 88.1607C144.976 95.6822 146.521 101.592 149.61 105.89C152.699 110.054 156.997 112.135 162.504 112.135Z" fill="var(--fill-0, #F7F3EB)"/>
<path d="M191.617 57.9404H234.732V66.2006H218.01V120.396H208.339V66.2006H191.617V57.9404Z" fill="var(--fill-0, #F7F3EB)"/>
<path d="M248.227 76.677C251.316 76.0054 254.271 75.6697 257.092 75.6697C262.196 75.6697 265.956 76.4755 268.374 78.0873L262.733 85.1387C260.852 84.6014 258.032 84.3328 254.271 84.3328C251.719 84.3328 249.704 84.6014 248.227 85.1387V120.194H238.758V79.9005C238.758 78.2888 239.497 77.1471 240.974 76.4755L248.227 73.8564V76.677Z" fill="var(--fill-0, #F7F3EB)"/>
<path d="M310.254 115.762C308.105 117.105 305.419 118.18 302.195 118.985C299.106 119.791 295.883 120.194 292.525 120.194C285.003 120.194 279.094 118.18 274.796 114.15C270.498 109.986 268.349 104.211 268.349 96.8239C268.349 89.7053 270.296 84.0642 274.191 79.9005C278.221 75.7368 283.593 73.655 290.309 73.655C297.427 73.655 302.733 75.7368 306.225 79.9005C309.851 83.9299 311.463 89.7053 311.06 97.2268L277.415 101.055C278.892 108.442 283.996 112.135 292.726 112.135C298.905 112.135 303.337 111.128 306.023 109.113L310.254 115.762ZM290.107 82.5196C286.481 82.5196 283.593 83.3926 281.444 85.1387C279.295 86.8848 277.952 89.3024 277.415 92.3916L301.591 89.7725C300.785 84.9372 296.957 82.5196 290.107 82.5196Z" fill="var(--fill-0, #F7F3EB)"/>
<path d="M357.001 115.762C354.852 117.105 352.166 118.18 348.942 118.985C345.853 119.791 342.63 120.194 339.272 120.194C331.75 120.194 325.841 118.18 321.543 114.15C317.245 109.986 315.096 104.211 315.096 96.8239C315.096 89.7053 317.043 84.0642 320.938 79.9005C324.968 75.7368 330.34 73.655 337.056 73.655C344.174 73.655 349.48 75.7368 352.972 79.9005C356.598 83.9299 358.21 89.7053 357.807 97.2268L324.162 101.055C325.639 108.442 330.743 112.135 339.473 112.135C345.652 112.135 350.084 111.128 352.77 109.113L357.001 115.762ZM336.854 82.5196C333.228 82.5196 330.34 83.3926 328.191 85.1387C326.042 86.8848 324.699 89.3024 324.162 92.3916L348.338 89.7725C347.532 84.9372 343.704 82.5196 336.854 82.5196Z" fill="var(--fill-0, #F7F3EB)"/>
</g>
<g id="Holding">
<path d="M252.975 140.428H241.686V152.644H237.726V126.106H241.686V137.058H252.975V126.106H256.935V152.644H252.975V140.428Z" fill="var(--fill-0, #F7F3EB)"/>
<path d="M271.079 133.772C273.943 133.772 276.19 134.615 277.819 136.3C279.448 137.985 280.262 140.315 280.262 143.292C280.262 146.269 279.448 148.6 277.819 150.285C276.19 151.97 273.943 152.812 271.079 152.812C268.215 152.812 265.968 151.97 264.339 150.285C262.767 148.6 261.98 146.269 261.98 143.292C261.98 140.315 262.767 137.985 264.339 136.3C265.968 134.615 268.215 133.772 271.079 133.772ZM271.079 149.274C274.617 149.274 276.387 147.252 276.387 143.208C276.387 139.164 274.617 137.142 271.079 137.142C267.597 137.142 265.856 139.164 265.856 143.208C265.856 147.252 267.597 149.274 271.079 149.274Z" fill="var(--fill-0, #F7F3EB)"/>
<path d="M288.332 126.106V152.644H284.457V128.717C284.457 128.437 284.541 128.156 284.71 127.875C284.878 127.594 285.103 127.398 285.384 127.285L288.332 126.106Z" fill="var(--fill-0, #F7F3EB)"/>
<path d="M309.635 126.106V152.559L300.536 152.644C298.571 152.644 296.886 151.97 295.482 150.622C294.078 149.218 293.375 147.533 293.375 145.567V140.849C293.375 138.883 294.049 137.226 295.397 135.878C296.802 134.474 298.486 133.744 300.452 133.688L305.76 133.604V128.717C305.76 127.931 306.097 127.454 306.771 127.285L309.635 126.106ZM305.844 149.189L305.76 137.311H300.536C299.638 137.311 298.88 137.648 298.262 138.322C297.588 138.996 297.251 139.838 297.251 140.849V145.567C297.251 146.522 297.588 147.364 298.262 148.094C298.936 148.824 299.722 149.189 300.621 149.189H305.844Z" fill="var(--fill-0, #F7F3EB)"/>
<path d="M313.696 131.582C313.471 131.582 313.359 131.526 313.359 131.413V127.875C313.359 127.763 313.471 127.707 313.696 127.707H317.15C317.263 127.707 317.319 127.763 317.319 127.875V131.413C317.319 131.526 317.263 131.582 317.15 131.582H313.696ZM313.359 135.541C313.359 135.205 313.443 134.896 313.612 134.615C313.836 134.334 314.117 134.165 314.454 134.109L317.319 133.267V152.644H313.359V135.541Z" fill="var(--fill-0, #F7F3EB)"/>
<path d="M321.513 135.794C321.513 135.457 321.653 135.148 321.934 134.868C322.215 134.587 322.72 134.278 323.45 133.941L325.304 133.098L325.388 134.952C326.736 134.278 328.196 133.941 329.769 133.941C332.015 133.941 333.925 134.587 335.498 135.878C337.126 137.17 337.941 138.883 337.941 141.018L338.025 152.644H334.065V141.018C334.065 139.95 333.644 139.136 332.802 138.574C332.015 138.013 331.033 137.732 329.853 137.732C328.674 137.732 327.635 138.041 326.736 138.659C325.893 139.22 325.472 140.007 325.472 141.018V152.644H321.597L321.513 135.794Z" fill="var(--fill-0, #F7F3EB)"/>
<path d="M357.734 133.604V152.138C357.734 154.722 356.919 156.744 355.29 158.204C353.662 159.72 351.443 160.479 348.635 160.479C347.118 160.479 345.546 160.282 343.917 159.889L345.012 156.519C346.192 156.856 347.399 157.024 348.635 157.024C350.207 157.024 351.443 156.631 352.342 155.845C353.24 155.059 353.746 153.992 353.858 152.644H348.551C346.585 152.644 344.928 151.97 343.58 150.622C342.232 149.218 341.53 147.533 341.474 145.567L341.39 140.849C341.333 138.883 342.007 137.198 343.412 135.794C344.872 134.39 346.585 133.688 348.551 133.688L357.734 133.604ZM353.942 149.274L353.858 137.311H348.551C347.652 137.311 346.866 137.676 346.192 138.406C345.574 139.08 345.265 139.894 345.265 140.849L345.349 145.567C345.349 146.522 345.686 147.392 346.36 148.179C347.034 148.909 347.792 149.274 348.635 149.274H353.942Z" fill="var(--fill-0, #F7F3EB)"/>
</g>
</g>
<defs>
<clipPath id="clip0_80_4618">
<rect width="358" height="170" fill="white"/>
</clipPath>
</defs>
</svg>
