<svg preserveAspectRatio="xMidYMid meet" overflow="visible" style="display: block;" viewBox="0 0 88.4088 42" fill="none" xmlns="http://www.w3.org/2000/svg">
<g id="LOGO 0 2" clip-path="url(#clip0_80_4575)">
<g id="Group">
<g id="Group_2">
<path id="Vector" d="M9.77363 5.49365L10.8201 6.2826L10.8758 9.04276L13.7683 11.9329L13.9469 11.9804V7.50547H14.9529V11.9804C15.0318 11.9944 15.0689 11.9723 15.1315 11.9329C15.2301 11.8691 15.5863 11.5106 15.7024 11.3969C16.4994 10.623 17.242 9.78182 18.0448 9.0126L18.0808 6.2826L19.0774 5.54354V8.35939H22.0952L21.5058 9.3653C20.6751 9.40707 19.8107 9.2632 18.9985 9.46276L14.9529 13.614V22.1881H14.0224L13.9469 22.1127V13.5641L9.82236 9.44188L7.39402 9.35602L6.80578 8.35939H9.77247V5.49249L9.77363 5.49365Z" fill="var(--fill-0, #F7F3EB)"/>
<path id="Vector_2" d="M14.9032 4.63856V6.65039C14.612 6.66315 14.192 6.7084 13.9472 6.57497V4.63856H14.9032Z" fill="var(--fill-0, #F7F3EB)"/>
</g>
<path id="Vector_3" d="M28.5811 30.2597C28.6287 22.9956 28.7412 15.7001 28.5231 8.44409C27.3977 0.438564 17.1843 -0.567348 10.7624 0.221603C5.37437 0.881768 0.314649 3.44238 0.0164718 9.48945C0.0942067 16.5738 -0.130876 23.6778 0.133654 30.7493C1.49691 38.7815 11.4957 39.6888 18.0463 38.9347C19.3701 38.7827 20.8714 38.4381 22.121 37.9798C22.3519 37.8951 23.3949 37.3997 23.5167 37.4334C23.6154 37.4601 24.2744 38.1945 24.3834 38.3302C25.0645 39.1783 25.4729 40.1309 25.727 41.1855L27.1227 41.9513C26.9881 39.9429 25.8836 38.1991 24.4588 36.8475C26.8199 35.4007 28.3085 33.0315 28.5811 30.2597ZM26.0182 29.7585C25.8708 31.8017 24.9926 33.7798 23.4518 35.1385C23.3184 35.2568 22.9564 35.6002 22.8009 35.541L20.5338 34.2288L19.9816 35.0851C20.5454 35.4645 21.2972 35.7406 21.8286 36.1548C21.8704 36.1873 21.9203 36.1548 21.8924 36.2685C20.0384 37.2257 17.9941 37.7455 15.908 37.8789L15.8546 32.9282C15.944 31.2529 15.9045 29.5729 15.8546 27.8987C15.8245 26.8487 15.763 25.7186 16.3176 24.787C16.7016 24.1407 17.9512 22.3969 18.1832 22.2031C18.2447 22.1521 18.319 22.1463 18.3944 22.1382L21.998 22.1417C21.998 22.1417 21.998 22.1393 21.998 22.1382H22.6176C23.3253 22.5837 23.823 23.3042 24.4322 23.8715L25.5657 23.5943L23.4657 21.427L25.488 19.4673L24.2639 19.2655L22.2788 21.1404C21.404 21.1079 20.5257 21.1404 19.6497 21.1369L19.6532 21.1404C19.3782 21.1346 18.9617 21.1253 18.8213 21.1299C18.8179 21.1299 18.8155 21.1044 18.8155 21.1021C18.8144 21.0917 18.8121 21.0812 18.8109 21.0708C18.8109 21.0615 18.8063 21.051 18.8097 21.0418L21.9632 17.3581L24.5192 17.3082C24.699 17.1643 24.7501 16.9334 24.8672 16.742C24.9485 16.6097 25.1782 16.3777 25.2084 16.2779C25.2548 16.1259 25.0912 16.2535 25.083 16.2535H22.1164L22.0409 16.1781V13.3866L21.0339 14.1257C20.9759 14.9645 21.1128 15.9066 21.0374 16.7327C21.0292 16.8186 21.0339 16.9021 20.9782 16.9752L15.4683 23.3436L13.504 23.3297C11.5908 21.2228 9.7983 19.0137 7.9083 16.8835C7.75283 16.5912 7.86305 16.2791 7.86305 15.9786C7.86305 15.6224 7.9199 14.4007 7.80388 14.1721L6.80493 13.4365L6.75388 16.2524H3.78719L4.42415 17.2502L6.95575 17.3337L10.1742 21.0545C10.1765 21.058 10.1777 21.0719 10.1754 21.087C10.1742 21.1033 10.1707 21.1195 10.1672 21.123C10.1371 21.1566 9.49548 21.1648 9.37597 21.1694C9.22399 21.1752 9.072 21.1798 8.92117 21.1833H8.91305C8.04056 21.1868 7.16343 21.1566 6.29211 21.1891L4.30697 19.3142L3.0841 19.5161L5.10636 21.4757L3.00636 23.643L4.1399 23.9203C4.74901 23.3529 5.24675 22.6324 5.95332 22.1881L8.85968 22.1475H10.6928C10.7833 22.1741 12.6466 24.7951 12.9228 25.4436C13.2233 26.1514 13.0922 26.9972 13.0922 27.7467V37.8766C8.2262 37.7896 2.92631 35.1814 2.63045 29.7574V9.38967C3.12702 2.36337 10.7671 0.699614 16.5879 1.32033C21.2613 1.81923 25.7502 4.24293 26.0193 9.4384V29.7585H26.0182Z" fill="var(--fill-0, #F7F3EB)"/>
</g>
<g id="QTree">
<path d="M46.8976 21.8169C46.8976 23.409 46.5991 24.8186 46.0021 26.0459C45.4382 27.24 44.6256 28.1521 43.5642 28.7823L46.5991 32.0163L44.5592 33.6581L41.6238 29.5784C41.0931 29.6779 40.5956 29.7276 40.1312 29.7276C38.1079 29.7276 36.4826 28.9979 35.2554 27.5385C34.0281 26.0791 33.4145 24.1719 33.4145 21.8169C33.4145 19.3956 34.0281 17.4552 35.2554 15.9958C36.4826 14.5363 38.1079 13.8066 40.1312 13.8066C42.1545 13.8066 43.7798 14.5363 45.007 15.9958C46.2674 17.4552 46.8976 19.3956 46.8976 21.8169ZM40.1312 27.7375C41.4911 27.7375 42.5525 27.2234 43.3154 26.1952C44.0783 25.1338 44.4597 23.6743 44.4597 21.8169C44.4597 19.9263 44.0783 18.4668 43.3154 17.4386C42.5525 16.3772 41.4911 15.8465 40.1312 15.8465C38.7713 15.8465 37.7099 16.3772 36.947 17.4386C36.1841 18.4668 35.8027 19.9263 35.8027 21.8169C35.8027 23.6743 36.1841 25.1338 36.947 26.1952C37.7099 27.2234 38.7713 27.7375 40.1312 27.7375Z" fill="var(--fill-0, #F7F3EB)"/>
<path d="M47.3208 14.3539H57.968V16.3938H53.8385V29.7774H51.4503V16.3938H47.3208V14.3539Z" fill="var(--fill-0, #F7F3EB)"/>
<path d="M61.3006 18.981C62.0635 18.8151 62.7932 18.7322 63.4898 18.7322C64.7502 18.7322 65.6789 18.9312 66.2759 19.3292L64.8829 21.0706C64.4185 20.9379 63.722 20.8716 62.7932 20.8716C62.163 20.8716 61.6655 20.9379 61.3006 21.0706V29.7276H58.9622V19.777C58.9622 19.379 59.1447 19.097 59.5095 18.9312L61.3006 18.2844V18.981Z" fill="var(--fill-0, #F7F3EB)"/>
<path d="M76.6184 28.6331C76.0877 28.9647 75.4243 29.2301 74.6283 29.4291C73.8654 29.6281 73.0693 29.7276 72.2401 29.7276C70.3827 29.7276 68.9232 29.2301 67.8618 28.235C66.8004 27.2068 66.2697 25.7805 66.2697 23.9563C66.2697 22.1983 66.7507 20.8052 67.7126 19.777C68.7076 18.7488 70.0344 18.2347 71.6928 18.2347C73.4508 18.2347 74.7609 18.7488 75.6233 19.777C76.5189 20.7721 76.9169 22.1983 76.8174 24.0558L68.5086 25.0011C68.8735 26.8254 70.1339 27.7375 72.2899 27.7375C73.8156 27.7375 74.9102 27.4887 75.5736 26.9912L76.6184 28.6331ZM71.6431 20.4238C70.7475 20.4238 70.0344 20.6394 69.5037 21.0706C68.973 21.5018 68.6413 22.0988 68.5086 22.8617L74.479 22.2149C74.28 21.0208 73.3347 20.4238 71.6431 20.4238Z" fill="var(--fill-0, #F7F3EB)"/>
<path d="M88.1627 28.6331C87.632 28.9647 86.9686 29.2301 86.1725 29.4291C85.4096 29.6281 84.6136 29.7276 83.7844 29.7276C81.9269 29.7276 80.4675 29.2301 79.4061 28.235C78.3447 27.2068 77.814 25.7805 77.814 23.9563C77.814 22.1983 78.295 20.8052 79.2568 19.777C80.2519 18.7488 81.5787 18.2347 83.2371 18.2347C84.995 18.2347 86.3052 18.7488 87.1676 19.777C88.0631 20.7721 88.4612 22.1983 88.3617 24.0558L80.0529 25.0011C80.4178 26.8254 81.6782 27.7375 83.8341 27.7375C85.3599 27.7375 86.4545 27.4887 87.1178 26.9912L88.1627 28.6331ZM83.1873 20.4238C82.2918 20.4238 81.5787 20.6394 81.048 21.0706C80.5173 21.5018 80.1856 22.0988 80.0529 22.8617L86.0233 22.2149C85.8243 21.0208 84.8789 20.4238 83.1873 20.4238Z" fill="var(--fill-0, #F7F3EB)"/>
</g>
<g id="Holding">
<path d="M62.4731 34.7468H59.6852V37.7635H58.7074V31.2099H59.6852V33.9146H62.4731V31.2099H63.4509V37.7635H62.4731V34.7468Z" fill="var(--fill-0, #F7F3EB)"/>
<path d="M66.9439 33.1032C67.6512 33.1032 68.206 33.3112 68.6083 33.7273C69.0105 34.1434 69.2116 34.719 69.2116 35.4542C69.2116 36.1893 69.0105 36.7649 68.6083 37.181C68.206 37.5971 67.6512 37.8051 66.9439 37.8051C66.2365 37.8051 65.6817 37.5971 65.2795 37.181C64.8911 36.7649 64.6969 36.1893 64.6969 35.4542C64.6969 34.719 64.8911 34.1434 65.2795 33.7273C65.6817 33.3112 66.2365 33.1032 66.9439 33.1032ZM66.9439 36.9313C67.8177 36.9313 68.2546 36.432 68.2546 35.4333C68.2546 34.4347 67.8177 33.9354 66.9439 33.9354C66.0839 33.9354 65.6539 34.4347 65.6539 35.4333C65.6539 36.432 66.0839 36.9313 66.9439 36.9313Z" fill="var(--fill-0, #F7F3EB)"/>
<path d="M71.2046 31.2099V37.7635H70.2476V31.8549C70.2476 31.7855 70.2684 31.7162 70.31 31.6468C70.3516 31.5775 70.4071 31.529 70.4765 31.5012L71.2046 31.2099Z" fill="var(--fill-0, #F7F3EB)"/>
<path d="M76.4654 31.2099V37.7427L74.2184 37.7635C73.733 37.7635 73.3169 37.5971 72.9701 37.2642C72.6234 36.9174 72.45 36.5013 72.45 36.0159V34.8508C72.45 34.3654 72.6165 33.9562 72.9493 33.6233C73.2961 33.2766 73.7122 33.0963 74.1976 33.0824L75.5083 33.0616V31.8549C75.5083 31.6607 75.5916 31.5428 75.758 31.5012L76.4654 31.2099ZM75.5291 36.9105L75.5083 33.977H74.2184C73.9965 33.977 73.8093 34.0602 73.6567 34.2267C73.4903 34.3931 73.407 34.6012 73.407 34.8508V36.0159C73.407 36.2517 73.4903 36.4597 73.6567 36.64C73.8231 36.8203 74.0173 36.9105 74.2392 36.9105H75.5291Z" fill="var(--fill-0, #F7F3EB)"/>
<path d="M77.4682 32.5623C77.4128 32.5623 77.385 32.5484 77.385 32.5207V31.6468C77.385 31.6191 77.4128 31.6052 77.4682 31.6052H78.3212C78.349 31.6052 78.3628 31.6191 78.3628 31.6468V32.5207C78.3628 32.5484 78.349 32.5623 78.3212 32.5623H77.4682ZM77.385 33.5401C77.385 33.4569 77.4058 33.3806 77.4474 33.3112C77.5029 33.2419 77.5723 33.2003 77.6555 33.1864L78.3628 32.9784V37.7635H77.385V33.5401Z" fill="var(--fill-0, #F7F3EB)"/>
<path d="M79.3985 33.6025C79.3985 33.5193 79.4332 33.443 79.5026 33.3737C79.5719 33.3043 79.6967 33.228 79.8771 33.1448L80.3348 32.9368L80.3556 33.3945C80.6884 33.228 81.0491 33.1448 81.4374 33.1448C81.9922 33.1448 82.4638 33.3043 82.8522 33.6233C83.2544 33.9423 83.4555 34.3654 83.4555 34.8924L83.4763 37.7635H82.4985V34.8924C82.4985 34.6289 82.3945 34.4278 82.1864 34.2891C81.9922 34.1504 81.7495 34.081 81.4582 34.081C81.167 34.081 80.9104 34.1573 80.6884 34.3099C80.4804 34.4486 80.3764 34.6428 80.3764 34.8924V37.7635H79.4193L79.3985 33.6025Z" fill="var(--fill-0, #F7F3EB)"/>
<path d="M88.3434 33.0616V37.6387C88.3434 38.2767 88.1423 38.776 87.74 39.1366C87.3378 39.5111 86.7899 39.6984 86.0964 39.6984C85.7219 39.6984 85.3336 39.6498 84.9314 39.5527L85.2018 38.7205C85.4931 38.8038 85.7913 38.8454 86.0964 38.8454C86.4848 38.8454 86.7899 38.7483 87.0119 38.5541C87.2338 38.3599 87.3586 38.0964 87.3863 37.7635H86.0756C85.5902 37.7635 85.181 37.5971 84.8481 37.2642C84.5153 36.9174 84.3419 36.5013 84.328 36.0159L84.3072 34.8508C84.2933 34.3654 84.4598 33.9493 84.8065 33.6025C85.1671 33.2558 85.5902 33.0824 86.0756 33.0824L88.3434 33.0616ZM87.4071 36.9313L87.3863 33.977H86.0756C85.8537 33.977 85.6595 34.0672 85.4931 34.2475C85.3405 34.4139 85.2642 34.615 85.2642 34.8508L85.285 36.0159C85.285 36.2517 85.3683 36.4667 85.5347 36.6608C85.7011 36.8412 85.8884 36.9313 86.0964 36.9313H87.4071Z" fill="var(--fill-0, #F7F3EB)"/>
</g>
</g>
<defs>
<clipPath id="clip0_80_4575">
<rect width="88.4088" height="42" fill="white"/>
</clipPath>
</defs>
</svg>
