<svg width="192" height="48" viewBox="0 0 192 48" fill="none" xmlns="http://www.w3.org/2000/svg">
<g clip-path="url(#clip0_97_410)">
<g clip-path="url(#clip1_97_410)">
<rect x="21.5" y="0.122559" width="31.5904" height="31.5862" rx="15.7931" fill="#0D1821"/>
<mask id="mask0_97_410" style="mask-type:luminance" maskUnits="userSpaceOnUse" x="21" y="0" width="33" height="32">
<path d="M23.1233 8.94859C23.3885 8.38019 24.0095 7.31287 24.4757 6.68973C24.9241 6.08975 25.5829 5.33505 26.0891 4.78349C26.347 4.50245 26.7311 4.16667 27.0216 3.91826C27.3121 3.66985 27.6846 3.37617 27.9814 3.16039C28.2782 2.94461 28.7181 2.66673 29.0349 2.45621C29.3517 2.24569 29.8137 1.99623 30.1621 1.82781C30.8073 1.51625 31.6966 1.16047 32.3701 0.914163C32.7427 0.777326 33.2553 0.635226 33.6436 0.554177C34.0867 0.462601 34.6771 0.326817 35.1265 0.27524C35.9558 0.178401 36.4568 0.120509 37.3514 0.122614C37.885 0.124719 38.5986 0.163665 39.1279 0.228926C39.4447 0.267872 39.8668 0.331027 40.1814 0.387867C40.4467 0.436286 40.7971 0.517336 41.0581 0.579439C41.1371 0.598385 41.8517 0.773116 42.6536 1.06153C43.4977 1.36467 44.1418 1.68571 44.1471 1.68887C44.1965 1.71413 44.2628 1.74466 44.3123 1.76992C44.3618 1.79518 44.427 1.82781 44.4754 1.85202C44.5754 1.9036 44.7091 1.97412 44.808 2.02675C44.8343 2.04149 45.0753 2.17096 45.3616 2.34042C45.811 2.60778 46.1983 2.86883 46.3551 2.98145C46.5902 3.14917 46.8459 3.34039 47.1224 3.55511C47.2497 3.65301 47.4118 3.79405 47.536 3.89615C51.9542 7.66022 53.1561 14.5115 50.0345 20.8587C46.2288 28.5963 37.4398 32.6561 30.401 29.9257C37.4398 32.6561 46.2299 28.5973 50.0345 20.8587C53.1561 14.5115 51.9531 7.66127 47.536 3.89615C47.8749 4.1972 48.3158 4.61192 48.6379 4.93085C48.8231 5.11506 49.0547 5.3761 49.2262 5.57293C49.4851 5.86976 50.0261 6.51395 50.6018 7.41813C51.1785 8.32335 52.0131 9.83277 52.5551 11.8716C52.854 12.9979 53.1729 14.6968 53.0624 16.763C53.0424 17.142 52.994 17.6462 52.9445 18.023C52.8951 18.3998 52.794 18.8808 52.7298 19.2482C52.6656 19.6156 52.5246 20.1282 52.4057 20.4955C52.1689 21.2281 51.7994 22.1902 51.4616 22.8817C50.9996 23.8291 50.4797 24.6133 50.2113 24.9964C49.7798 25.6111 49.1399 26.3858 48.6168 26.9237C47.8633 27.6995 47.2929 28.1415 46.7414 28.5689C46.7056 28.5963 45.852 29.2541 44.648 29.8878C43.684 30.3951 42.9894 30.6436 42.3769 30.8635C42.0043 30.9972 41.4949 31.1383 41.1118 31.2362C40.7719 31.3225 40.3098 31.4067 39.9657 31.4783C39.5447 31.5656 38.9732 31.6235 38.5449 31.6572C37.9576 31.7046 37.1693 31.7214 36.58 31.6919C36.3074 31.6783 35.9443 31.6561 35.6738 31.6256C35.3117 31.5846 34.8297 31.5214 34.4708 31.4551C32.3565 31.0593 30.9125 30.3688 30.4378 30.1415C30.2347 30.0436 29.9748 29.911 29.7759 29.8025C29.6169 29.7162 29.2444 29.5131 28.7834 29.2183C27.8793 28.6405 27.0574 27.9889 26.2712 27.2258C25.5071 26.4848 24.8146 25.648 24.2505 24.8175C24.0389 24.5059 23.76 24.0859 23.5853 23.7522C23.4233 23.4428 23.1949 23.0354 23.0454 22.7196C22.8844 22.3786 22.6781 21.9197 22.5497 21.565C22.3192 20.9302 22.0803 20.2734 21.8541 19.225C21.7015 18.5166 21.5836 17.5535 21.5278 16.8315C21.4983 16.4546 21.4962 15.9494 21.5036 15.5704C21.511 15.1915 21.5552 14.7126 21.5773 14.3442C21.5994 13.9758 21.6793 13.4579 21.7551 13.0832C21.8625 12.5537 22.0098 11.8464 22.1803 11.3338C22.4224 10.6033 22.7981 9.64436 23.1244 8.94754L23.1233 8.94859Z" fill="white"/>
</mask>
<g mask="url(#mask0_97_410)">
<path d="M28.1125 18.0116C28.1195 18.1154 28.3093 18.2358 28.6818 18.3726C29.2123 18.5674 29.6322 18.721 30.0142 18.9768C31.154 19.7389 31.4845 21.1809 31.5603 22.2567C31.6497 23.5156 31.1625 25.2882 30.9793 25.9555C30.6068 27.3091 30.6078 27.3249 30.6162 27.4439C30.6425 27.4344 30.6783 27.4218 30.7046 27.4112C32.4117 21.0967 35.2354 21.1936 37.3035 22.3872C37.9139 22.7398 38.1928 22.9009 38.1991 22.4872C38.2006 22.4184 37.9532 22.2599 37.4572 22.0114C36.6899 21.6272 35.9658 21.2641 35.5333 20.3305C34.1314 17.3053 36.25 13.3276 37.2677 11.4161C37.4901 10.9978 37.5649 10.7656 37.4919 10.7192C37.3874 10.7242 37.1499 11.1013 36.7794 11.8508C35.5028 14.4296 33.3663 18.7463 30.4363 18.5063C29.6364 18.441 28.987 17.9105 28.2072 17.7811C28.1609 17.84 28.1135 17.9358 28.1104 18.0105" fill="white"/>
<path d="M41.0219 9.55281C41.0166 9.57491 41.0219 9.60649 41.0209 9.62965C41.5555 10.1802 42.4711 10.2349 42.8248 11.0191C43.3299 12.1401 43.1321 13.5748 42.2375 15.2842C41.6797 16.3504 41.7028 16.4168 41.7334 16.501C41.7492 16.5041 41.7692 16.5083 41.7849 16.5125C41.9691 16.3852 42.3248 15.5631 42.4964 15.1684C43.6373 12.5327 45.0149 12.0622 45.6485 12.2001C45.9326 12.2611 46.2179 12.4422 46.4262 12.5727C46.8735 12.8548 46.8872 12.8453 46.9272 12.8158C46.9609 12.7906 46.9662 12.7285 46.9704 12.6285C46.6462 12.4338 46.3136 12.239 45.9726 12.0422C45.3264 11.5685 44.6097 10.017 45.2812 7.68656C45.5517 6.74765 45.478 6.67923 45.4338 6.63818C45.3791 6.67292 45.3422 6.69608 45.1865 7.4592C44.6055 10.3044 42.6922 10.1938 42.2501 10.0138C41.8839 9.82543 41.5134 9.63702 41.1408 9.45071C41.0956 9.45808 41.0482 9.46544 41.0219 9.55281Z" fill="white"/>
</g>
<path d="M76.4422 17.5016L81.9937 27.761H77.1961L74.8316 23.3062C73.5294 21.1126 72.2615 18.0078 70.8565 18.0078H68.0465C66.5045 18.0078 65.2366 19.2565 65.2366 20.7751V27.761H60.9873V20.7751C60.9873 16.9279 64.14 13.823 68.0465 13.823H73.7693C77.5045 13.823 77.5045 8.25459 73.7693 8.25459H60.9873V4.06982H73.7693C81.5139 4.06982 83.57 14.633 76.4422 17.5016Z" fill="#0D1821"/>
<path d="M94.6289 4.06982C101.147 4.06982 106.475 9.36394 106.475 15.9154C106.475 22.4338 101.147 27.761 94.6289 27.761C88.0774 27.761 82.7832 22.4338 82.7832 15.9154C82.7832 9.36394 88.0774 4.06982 94.6289 4.06982ZM94.6289 23.6581C98.8642 23.6581 102.372 20.1176 102.372 15.8823C102.372 11.647 98.8642 8.17276 94.6289 8.17276C90.3936 8.17276 86.8862 11.647 86.8862 15.8823C86.8862 20.1176 90.3936 23.6581 94.6289 23.6581Z" fill="#0D1821"/>
<path d="M140.39 27.761V17.2678L132.851 4.06982H137.536L144.535 16.7138V27.761H140.39ZM145.436 15.4755C145.176 15.1061 144.895 14.5956 144.595 13.9439C144.295 13.2812 144.094 12.5697 143.994 11.8094C143.894 11.0381 144.014 10.3049 144.355 9.60971L147.178 4.06982H151.804L145.436 15.4755Z" fill="#0D1821"/>
<path d="M169.967 11.1168V27.761H165.844V11.1168C165.844 9.37181 165.578 8.23088 164.447 8.23088C162.552 8.23088 160.856 11.1839 160.092 12.4255L150.249 27.761H145.328L155.17 12.4255C158.562 7.1235 160.757 4.06982 165.279 4.06982C168.072 4.06982 169.967 6.68726 169.967 11.1168Z" fill="#0D1821"/>
<path d="M109.318 14.0991H132.852V17.7318H109.318V14.0991Z" fill="#0D1821"/>
<path d="M22.3547 44.1528V35.691H24.4745V44.1528C24.4745 45.0588 24.6112 45.623 25.1924 45.623C26.1668 45.623 27.0387 44.1357 27.4319 43.4861L32.4919 35.691H35.0219L29.9619 43.4861C28.2182 46.1871 27.0729 47.7427 24.7651 47.7427C23.3291 47.7427 22.3547 46.4264 22.3547 44.1528ZM45.0088 47.6572H40.6496C37.3504 47.623 34.6836 44.9563 34.6836 41.657C34.6836 38.3406 37.3675 35.6568 40.6838 35.6568H45.0088V37.7765H40.6838C38.547 37.7765 36.8033 39.5031 36.8033 41.657C36.8033 43.7938 38.547 45.5375 40.6838 45.5375H45.0088V47.6572ZM43.3677 42.7169H39.3846V40.5971H43.3677V42.7169ZM57.9854 35.6568V44.1186C57.9854 46.7683 56.652 47.6572 55.8315 47.6572C54.1562 47.6572 53.5408 46.9905 52.0706 43.8964L50.3612 40.3065C49.8483 39.2125 48.4124 35.8961 48.4978 39.1783V47.6572H46.3781V39.1783C46.3781 36.5286 47.6944 35.6568 48.5149 35.6568C50.2073 35.6568 50.8056 36.3064 52.2758 39.4005L54.0536 43.1271C54.669 44.4947 55.9511 47.1786 55.8656 44.1186V35.6568H57.9854ZM63.2556 47.6572V37.7765H59.358V35.6568H69.29V37.7765H65.3754V47.6572H63.2556ZM75.4726 47.6914C72.8058 47.6914 70.6519 45.5375 70.6519 42.8707V35.691H72.7716V42.8707C72.7716 44.358 73.9853 45.5717 75.4726 45.5717C76.9598 45.5717 78.1564 44.358 78.1564 42.8707V35.691H80.2762V42.8707C80.2762 45.5375 78.1222 47.6914 75.4726 47.6914ZM89.3549 42.4604L92.1242 47.6572H89.731L88.5515 45.4007C87.9019 44.2896 87.2694 42.7169 86.5685 42.7169H85.1667C84.3975 42.7169 83.765 43.3494 83.765 44.1186V47.6572H81.6452V44.1186C81.6452 42.1698 83.2179 40.5971 85.1667 40.5971H88.0215C89.8848 40.5971 89.8848 37.7765 88.0215 37.7765H81.6452V35.6568H88.0215C91.8849 35.6568 92.9106 41.0074 89.3549 42.4604ZM102.964 47.6572H98.6046C95.3053 47.623 92.6386 44.9563 92.6386 41.657C92.6386 38.3406 95.3224 35.6568 98.6388 35.6568H102.964V37.7765H98.6388C96.502 37.7765 94.7583 39.5031 94.7583 41.657C94.7583 43.7938 96.502 45.5375 98.6388 45.5375H102.964V47.6572ZM101.323 42.7169H97.3396V40.5971H101.323V42.7169ZM111.836 35.6568H118.144V37.7765H111.836C109.99 37.7765 109.99 40.5971 111.836 40.5971H115.768C117.717 40.5971 119.307 42.1698 119.307 44.1186C119.307 46.0674 117.717 47.6572 115.768 47.6572H109.135V45.5375H115.768C117.632 45.5375 117.632 42.7169 115.768 42.7169H111.751C109.836 42.6656 108.315 41.11 108.315 39.1783C108.315 37.2295 109.888 35.6568 111.836 35.6568ZM123.723 47.6572V37.7765H119.826V35.6568H129.758V37.7765H125.843V47.6572H123.723ZM135.94 47.6914C133.274 47.6914 131.12 45.5375 131.12 42.8707V35.691H133.239V42.8707C133.239 44.358 134.453 45.5717 135.94 45.5717C137.428 45.5717 138.624 44.358 138.624 42.8707V35.691H140.744V42.8707C140.744 45.5375 138.59 47.6914 135.94 47.6914ZM146.489 47.6572H142.113V45.5375H146.438C148.592 45.5375 150.318 43.7938 150.318 41.657C150.318 39.5031 148.592 37.7765 146.438 37.7765H142.113V35.6568H146.438C149.754 35.6568 152.438 38.3406 152.438 41.657C152.438 44.9563 149.771 47.623 146.489 47.6572ZM153.807 47.6572V35.6739H155.927V47.6572H153.807ZM162.974 35.5371C166.342 35.5371 169.094 38.2722 169.094 41.657C169.094 45.0246 166.342 47.7769 162.974 47.7769C159.59 47.7769 156.854 45.0246 156.854 41.657C156.854 38.2722 159.59 35.5371 162.974 35.5371ZM162.974 45.6571C165.162 45.6571 166.974 43.828 166.974 41.6399C166.974 39.4518 165.162 37.6568 162.974 37.6568C160.786 37.6568 158.974 39.4518 158.974 41.6399C158.974 43.828 160.786 45.6571 162.974 45.6571Z" fill="#0D1821"/>
</g>
</g>
<defs>
<clipPath id="clip0_97_410">
<rect width="192" height="47.78" fill="white"/>
</clipPath>
<clipPath id="clip1_97_410">
<rect width="192" height="47.78" fill="white"/>
</clipPath>
</defs>
</svg>
