<svg preserveAspectRatio="xMidYMid meet" overflow="visible" style="display: block;" viewBox="0 0 20 20" fill="none" xmlns="http://www.w3.org/2000/svg">
<g id="5">
<path id="icon facebook" d="M18.896 0H1.104C0.494278 0 0 0.494278 0 1.104V18.896C0 19.5057 0.494278 20 1.104 20H10.6832V12.2656H8.0856V9.2384H10.6832V7.012C10.6832 4.4288 12.2608 3.0224 14.5656 3.0224C15.3435 3.01963 16.1209 3.05942 16.8944 3.1416V5.84H15.3008C14.0504 5.84 13.8088 6.4352 13.8088 7.3096V9.2376H16.8064L16.416 12.2648H13.8088V20H18.896C19.5057 20 20 19.5057 20 18.896V1.104C20 0.494278 19.5057 0 18.896 0Z" fill="var(--fill-0, white)"/>
</g>
</svg>
