<svg preserveAspectRatio="xMidYMid meet" overflow="visible" style="display: block;" viewBox="0 0 20 14" fill="none" xmlns="http://www.w3.org/2000/svg">
<g id="3">
<path id="icon youtube" d="M9.9938 0C9.9938 0 3.74298 1.49012e-07 2.17411 0.40777C1.33408 0.64255 0.642384 1.33443 0.407669 2.18704C8.91089e-06 3.75632 0 7.00616 0 7.00616C0 7.00616 8.91089e-06 10.2684 0.407669 11.813C0.642384 12.6656 1.32173 13.3451 2.17411 13.5799C3.75534 14 9.9938 14 9.9938 14C9.9938 14 16.257 14 17.8259 13.5923C18.6782 13.3575 19.3576 12.6903 19.5799 11.8254C20 10.2684 20 7.01856 20 7.01856C20 7.01856 20.0123 3.75632 19.5799 2.18704C19.3576 1.33443 18.6782 0.65492 17.8259 0.4325C16.257 2.01166e-05 9.9938 0 9.9938 0ZM8.00489 4.00358L13.2057 7.00616L8.00489 9.99646V4.00358Z" fill="var(--fill-0, white)"/>
</g>
</svg>
