<svg preserveAspectRatio="xMidYMid meet" overflow="visible" style="display: block;" viewBox="0 0 20 20" fill="none" xmlns="http://www.w3.org/2000/svg">
<path id="Vector" fill-rule="evenodd" clip-rule="evenodd" d="M4.16667 0H15.8333C18.135 0 20 1.86583 20 4.16667V15.8333C20 18.1342 18.135 20 15.8333 20H4.16667C1.86583 20 0 18.1342 0 15.8333V4.16667C0 1.86583 1.86583 0 4.16667 0ZM4.16667 15.8333H6.66667V6.66667H4.16667V15.8333ZM5.41667 5.61C4.61167 5.61 3.95833 4.95167 3.95833 4.14C3.95833 3.32833 4.61167 2.67 5.41667 2.67C6.22167 2.67 6.875 3.32833 6.875 4.14C6.875 4.95167 6.2225 5.61 5.41667 5.61ZM14.1667 15.8333H16.6667V10.2008C16.6667 5.82333 11.9967 5.9825 10.8333 8.1375V6.66667H8.33333V15.8333H10.8333V11.1633C10.8333 8.56917 14.1667 8.35667 14.1667 11.1633V15.8333Z" fill="var(--fill-0, white)"/>
</svg>
