<svg preserveAspectRatio="none" width="100%" height="100%" overflow="visible" style="display: block;" viewBox="0 0 14.2774 13.6719" fill="none" xmlns="http://www.w3.org/2000/svg">
<path id="Vector" fill-rule="evenodd" clip-rule="evenodd" d="M9.84918 0.0461324C9.29576 -1.14553e-07 8.61311 0 7.74461 0H6.53268C5.66425 0 4.98161 -1.14553e-07 4.42816 0.0461324C3.86326 0.0932324 3.39267 0.190695 2.95527 0.408645C2.23262 0.768735 1.62084 1.34774 1.19329 2.07623C1.08167 2.26642 0.989217 2.46696 0.910347 2.68327C0.642005 3.41916 0.517947 4.39046 0.33743 5.80384L0.32216 5.92331C0.168417 7.12654 0.0482298 8.06711 0.0117273 8.82476C-0.0253377 9.59396 0.0194973 10.235 0.232392 10.8235C0.580355 11.7854 1.22283 12.5874 2.05149 13.0944C2.55849 13.4046 3.13646 13.5411 3.84253 13.607C4.53794 13.6719 5.41158 13.6719 6.52916 13.6719H7.74821C8.86578 13.6719 9.73939 13.6719 10.4349 13.607C11.1409 13.5411 11.7189 13.4046 12.2259 13.0944C13.0545 12.5874 13.697 11.7854 14.045 10.8235C14.2578 10.235 14.3027 9.59396 14.2656 8.82476C14.2291 8.06711 14.109 7.12646 13.9552 5.92324L13.9377 5.78606C13.7464 4.28846 13.6184 3.28554 13.3064 2.52667C13.2414 2.36875 13.1681 2.21941 13.0841 2.07623C12.6565 1.34774 12.0447 0.768735 11.3221 0.408645C10.8847 0.190695 10.4141 0.0932324 9.84918 0.0461324ZM3.40455 1.47391C3.68028 1.33652 4.0099 1.25632 4.5106 1.21458C5.01803 1.17228 5.65943 1.17188 6.55496 1.17188H7.72233C8.61791 1.17188 9.25931 1.17228 9.76676 1.21458C10.2675 1.25632 10.5971 1.33652 10.8728 1.47391C11.3919 1.73256 11.8335 2.144 12.1481 2.66116L11.7526 3.09099C10.5439 4.40479 9.67496 5.34761 8.92541 5.96914C8.18831 6.58046 7.63053 6.82564 7.05146 6.82564C6.47246 6.82564 5.91461 6.58046 5.17751 5.96914C4.42799 5.34761 3.559 4.40479 2.35031 3.09099L2.06215 2.77778C2.07519 2.75353 2.08854 2.72978 2.10222 2.70647C2.41824 2.16802 2.87042 1.74007 3.40455 1.47391ZM12.5647 3.86558C12.6685 4.38712 12.7585 5.07664 12.8838 6.05674C13.0418 7.29371 13.1552 8.18456 13.189 8.88604C13.2225 9.58174 13.1734 10.0305 13.0416 10.3947C12.7845 11.1057 12.3096 11.6985 11.697 12.0732C11.3832 12.2652 10.9812 12.3798 10.3425 12.4394C9.69866 12.4995 8.87126 12.5 7.72233 12.5H6.55496C5.40606 12.5 4.57866 12.4995 3.93479 12.4394C3.29623 12.3798 2.89409 12.2652 2.58029 12.0732C1.9678 11.6985 1.49293 11.1057 1.23574 10.3947C1.10397 10.0305 1.05485 9.58174 1.08837 8.88604C1.12217 8.18456 1.23553 7.29371 1.39359 6.05674C1.50645 5.17346 1.59053 4.52558 1.68268 4.02259C2.82467 5.26384 3.72495 6.23854 4.52353 6.90086C5.35652 7.59161 6.14193 7.99751 7.05146 7.99751C7.96098 7.99751 8.74638 7.59161 9.57941 6.90086C10.3932 6.22594 11.3126 5.22656 12.4858 3.95134L12.5647 3.86558Z" fill="var(--fill-0, #A9DFFF)"/>
</svg>
