<svg preserveAspectRatio="none" width="100%" height="100%" overflow="visible" style="display: block;" viewBox="0 0 5.25 9.75" fill="none" xmlns="http://www.w3.org/2000/svg">
<path id="Vector" d="M4.03842 1.90761H5.04803C5.15948 1.90761 5.24995 1.81265 5.24995 1.69565V0.267701C5.24995 0.156636 5.16857 0.0642228 5.06317 0.0563804C4.74191 0.0324293 4.11434 0 3.66305 0C2.42305 0 1.61537 0.78 1.61537 2.19757V3.60326H0.201921C0.0904605 3.60326 0 3.69822 0 3.81522V5.29891C0 5.41591 0.0904605 5.51087 0.201921 5.51087H1.61537V9.53805C1.61537 9.65505 1.70583 9.75 1.81729 9.75H3.23074C3.3422 9.75 3.43266 9.65505 3.43266 9.53805V5.51087H4.89093C4.99391 5.51087 5.08033 5.42969 5.09164 5.32223L5.24873 3.83853C5.26206 3.71306 5.16837 3.60326 5.04803 3.60326H3.43266V2.54347C3.43266 2.19226 3.70384 1.90761 4.03842 1.90761Z" fill="var(--fill-0, #E6E6E6)"/>
</svg>
