<svg preserveAspectRatio="none" width="100%" height="100%" overflow="visible" style="display: block;" viewBox="0 0 9.75 9.75" fill="none" xmlns="http://www.w3.org/2000/svg">
<path id="Vector" d="M2.70833 0C1.21745 0 0 1.21745 0 2.70833V7.04167C0 8.53253 1.21745 9.75 2.70833 9.75H7.04167C8.53253 9.75 9.75 8.53253 9.75 7.04167V2.70833C9.75 1.21745 8.53253 0 7.04167 0H2.70833ZM2.70833 0.812498H7.04167C8.09333 0.812498 8.93753 1.65664 8.93753 2.70833V7.04167C8.93753 8.09333 8.09333 8.93753 7.04167 8.93753H2.70833C1.65664 8.93753 0.812498 8.09333 0.812498 7.04167V2.70833C0.812498 1.65664 1.65664 0.812498 2.70833 0.812498ZM7.71878 1.625C7.611 1.625 7.50765 1.6678 7.43149 1.74399C7.3553 1.82018 7.3125 1.9235 7.3125 2.03125C7.3125 2.13899 7.3553 2.24233 7.43149 2.31851C7.50765 2.3947 7.611 2.4375 7.71878 2.4375C7.82648 2.4375 7.92982 2.3947 8.00602 2.31851C8.08222 2.24233 8.12497 2.13899 8.12497 2.03125C8.12497 1.9235 8.08222 1.82018 8.00602 1.74399C7.92982 1.6678 7.82648 1.625 7.71878 1.625ZM4.875 2.16667C4.00608 2.16667 3.30294 2.50714 2.84481 3.02254C2.38667 3.53794 2.16667 4.2092 2.16667 4.875C2.16667 5.5408 2.38667 6.21206 2.84481 6.72746C3.30294 7.24286 4.00608 7.58333 4.875 7.58333C5.74392 7.58333 6.44706 7.24286 6.90519 6.72746C7.36333 6.21206 7.58333 5.5408 7.58333 4.875C7.58333 4.2092 7.36333 3.53794 6.90519 3.02254C6.44706 2.50714 5.74392 2.16667 4.875 2.16667ZM4.875 2.97916C5.5408 2.97916 5.9887 3.21422 6.29793 3.5621C6.60716 3.90998 6.77083 4.38976 6.77083 4.875C6.77083 5.36024 6.60716 5.84002 6.29793 6.1879C5.9887 6.53578 5.5408 6.77083 4.875 6.77083C4.2092 6.77083 3.76129 6.53578 3.45207 6.1879C3.14284 5.84002 2.97916 5.36024 2.97916 4.875C2.97916 4.38976 3.14284 3.90998 3.45207 3.5621C3.76129 3.21422 4.2092 2.97916 4.875 2.97916Z" fill="var(--fill-0, #E6E6E6)"/>
</svg>
