<svg preserveAspectRatio="none" width="100%" height="100%" overflow="visible" style="display: block;" viewBox="0 0 10.5 9.75" fill="none" xmlns="http://www.w3.org/2000/svg">
<path id="Vector" d="M1.36957 0C0.5775 0 0.00222901 0.471611 0.00222901 1.12024C0.00222901 1.77115 0.591195 2.26353 1.36957 2.26353C2.16163 2.26353 2.7369 1.78281 2.7369 1.10695C2.70038 0.456054 2.13653 0 1.36957 0ZM0.228261 2.71934C0.102718 2.71934 0 2.82139 0 2.94613V9.5232C0 9.64793 0.102718 9.75 0.228261 9.75H2.51087C2.63642 9.75 2.73913 9.64793 2.73913 9.5232V2.94613C2.73913 2.82139 2.63642 2.71934 2.51087 2.71934H0.228261ZM3.65218 2.71934C3.52663 2.71934 3.42391 2.82139 3.42391 2.94613V9.5232C3.42391 9.64793 3.52663 9.75 3.65218 9.75H5.70652C5.83252 9.75 5.93478 9.64838 5.93478 9.5232V6.12127V6.06457V6.00787C5.93478 5.47036 6.35036 5.03255 6.87992 4.99172C6.90731 4.98719 6.93457 4.98729 6.96196 4.98729C6.98935 4.98729 7.0166 4.98719 7.04399 4.99172C7.57358 5.03255 7.98915 5.47036 7.98915 6.00787V9.5232C7.98915 9.64838 8.09138 9.75 8.21738 9.75H10.2718C10.3972 9.75 10.5 9.64793 10.5 9.5232V5.66768C10.5 4.20031 9.7077 2.71934 7.941 2.71934C7.13753 2.71934 6.53054 3.02783 6.16304 3.28411V2.94613C6.16304 2.82139 6.06032 2.71934 5.93478 2.71934H3.65218Z" fill="var(--fill-0, #E6E6E6)"/>
</svg>
