<svg preserveAspectRatio="none" width="100%" height="100%" overflow="visible" style="display: block;" viewBox="0 0 8.25 9.75" fill="none" xmlns="http://www.w3.org/2000/svg">
<path id="Vector" d="M4.125 0V6.825C4.125 7.37591 3.67644 7.8 3.09375 7.8C2.51106 7.8 2.0625 7.37591 2.0625 6.825C2.0625 6.2741 2.51106 5.85 3.09375 5.85V3.9C1.39738 3.9 0 5.22116 0 6.825C0 8.42888 1.39738 9.75 3.09375 9.75C4.79012 9.75 6.1875 8.42888 6.1875 6.825V3.15161C6.8229 3.57955 7.48597 3.9 8.25 3.9V1.95C8.20118 1.95 7.48963 1.73641 6.99316 1.3273C6.49669 0.918172 6.1875 0.404616 6.1875 0H4.125Z" fill="var(--fill-0, #E6E6E6)"/>
</svg>
