<svg preserveAspectRatio="none" width="100%" height="100%" overflow="visible" style="display: block;" viewBox="0 0 12.75 9.75" fill="none" xmlns="http://www.w3.org/2000/svg">
<path id="Vector" d="M12.3941 1.67579C12.2762 1.0057 11.7146 0.517731 11.0629 0.365387C10.0876 0.152344 8.28277 0 6.32993 0C4.37826 0 2.54446 0.152344 1.56804 0.365387C0.917482 0.517731 0.354745 0.97476 0.236882 1.67579C0.117863 2.4375 0 3.50391 0 4.875C0 6.24609 0.117863 7.3125 0.265769 8.0742C0.384788 8.74433 0.946373 9.23228 1.59693 9.3846C2.63228 9.59768 4.40715 9.75 6.35998 9.75C8.31277 9.75 10.0876 9.59768 11.123 9.3846C11.7736 9.23228 12.3352 8.77523 12.4542 8.0742C12.572 7.3125 12.7199 6.21515 12.75 4.875C12.6899 3.50391 12.542 2.4375 12.3941 1.67579ZM4.73301 7.00781V2.74219L8.34173 4.875L4.73301 7.00781Z" fill="var(--fill-0, #E6E6E6)"/>
</svg>
