<svg width="29" height="42" viewBox="0 0 29 42" fill="none" xmlns="http://www.w3.org/2000/svg">
<path d="M9.77351 5.49359L10.82 6.28254L10.8757 9.04271L13.7682 11.9328L13.9468 11.9804V7.50542H14.9527V11.9804C15.0316 11.9943 15.0688 11.9723 15.1314 11.9328C15.23 11.869 15.5862 11.5105 15.7022 11.3968C16.4993 10.6229 17.2419 9.78177 18.0447 9.01254L18.0807 6.28254L19.0773 5.54348V8.35934H22.0951L21.5057 9.36525C20.6749 9.40702 19.8106 9.26315 18.9984 9.46271L14.9527 13.614V22.188H14.0222L13.9468 22.1126V13.5641L9.82224 9.44182L7.3939 9.35597L6.80566 8.35934H9.77235V5.49243L9.77351 5.49359Z" fill="#F7F3EB"/>
<path d="M14.9033 4.63843V6.65025C14.6121 6.66301 14.1921 6.70826 13.9473 6.57484V4.63843H14.9033Z" fill="#F7F3EB"/>
<path d="M28.5806 30.2595C28.6282 22.9954 28.7407 15.6999 28.5226 8.44389C27.3972 0.438363 17.1837 -0.567548 10.7619 0.221402C5.37386 0.881568 0.314133 3.44218 0.015956 9.48925C0.0936908 16.5736 -0.131392 23.6776 0.133138 30.7491C1.4964 38.7813 11.4952 39.6886 18.0458 38.9345C19.3696 38.7825 20.8709 38.4379 22.1205 37.9796C22.3514 37.8949 23.3944 37.3995 23.5162 37.4332C23.6149 37.4599 24.2739 38.1943 24.3829 38.33C25.064 39.1781 25.4724 40.1307 25.7265 41.1853L27.1222 41.9511C26.9876 39.9427 25.8831 38.1989 24.4583 36.8473C26.8194 35.4005 28.3079 33.0313 28.5806 30.2595ZM26.0177 29.7583C25.8703 31.8015 24.992 33.7796 23.4513 35.1383C23.3178 35.2566 22.9558 35.6 22.8004 35.5408L20.5333 34.2286L19.981 35.0849C20.5449 35.4643 21.2967 35.7404 21.8281 36.1546C21.8699 36.1871 21.9198 36.1546 21.8919 36.2683C20.0379 37.2255 17.9936 37.7453 15.9075 37.8787L15.8541 32.928C15.9435 31.2527 15.904 29.5727 15.8541 27.8985C15.824 26.8485 15.7625 25.7184 16.3171 24.7868C16.7011 24.1405 17.9507 22.3967 18.1827 22.2029C18.2442 22.1519 18.3184 22.1461 18.3939 22.138L21.9975 22.1415C21.9975 22.1415 21.9975 22.1391 21.9975 22.138H22.6171C23.3248 22.5835 23.8225 23.304 24.4316 23.8713L25.5652 23.5941L23.4652 21.4268L25.4874 19.4671L24.2634 19.2653L22.2783 21.1402C21.4035 21.1077 20.5252 21.1402 19.6492 21.1367L19.6527 21.1402C19.3777 21.1344 18.9612 21.1251 18.8208 21.1297C18.8173 21.1297 18.815 21.1042 18.815 21.1019C18.8139 21.0915 18.8115 21.081 18.8104 21.0706C18.8104 21.0613 18.8057 21.0508 18.8092 21.0416L21.9627 17.3579L24.5187 17.308C24.6985 17.1641 24.7495 16.9332 24.8667 16.7418C24.9479 16.6095 25.1777 16.3775 25.2078 16.2777C25.2542 16.1257 25.0907 16.2533 25.0825 16.2533H22.1158L22.0404 16.1779V13.3864L21.0334 14.1255C20.9753 14.9643 21.1123 15.9064 21.0368 16.7325C21.0287 16.8184 21.0334 16.9019 20.9777 16.975L15.4678 23.3434L13.5035 23.3295C11.5903 21.2226 9.79778 19.0135 7.90778 16.8833C7.75231 16.591 7.86253 16.2789 7.86253 15.9784C7.86253 15.6222 7.91938 14.4005 7.80336 14.1719L6.80441 13.4363L6.75336 16.2522H3.78667L4.42364 17.25L6.95524 17.3335L10.1737 21.0543C10.176 21.0578 10.1772 21.0717 10.1749 21.0868C10.1737 21.1031 10.1702 21.1193 10.1667 21.1228C10.1366 21.1564 9.49496 21.1646 9.37546 21.1692C9.22347 21.175 9.07148 21.1796 8.92065 21.1831H8.91253C8.04004 21.1866 7.16292 21.1564 6.29159 21.1889L4.30645 19.314L3.08358 19.5159L5.10585 21.4755L3.00585 23.6428L4.13938 23.9201C4.7485 23.3527 5.24623 22.6322 5.95281 22.1879L8.85916 22.1473H10.6923C10.7828 22.1739 12.6461 24.7949 12.9223 25.4434C13.2228 26.1512 13.0916 26.997 13.0916 27.7465V37.8764C8.22568 37.7894 2.92579 35.1812 2.62993 29.7572V9.38947C3.12651 2.36317 10.7666 0.699413 16.5874 1.32013C21.2608 1.81903 25.7497 4.24273 26.0188 9.4382V29.7583H26.0177Z" fill="#F7F3EB"/>
</svg>
