<svg preserveAspectRatio="none" width="100%" height="100%" overflow="visible" style="display: block;" viewBox="0 0 27.0002 39.9999" fill="none" xmlns="http://www.w3.org/2000/svg">
<g id="Group 1000005712">
<path id="Vector" d="M25.559 39.9999L24.2441 39.269C24.0041 38.2635 23.6189 37.3559 22.9772 36.5468C22.8747 36.4177 22.2538 35.7174 22.1603 35.6915C22.0451 35.6594 21.0622 36.1321 20.845 36.2127C19.6677 36.649 18.2527 36.9773 17.0052 37.1227C10.8316 37.8421 1.40979 36.9773 0.124803 29.3184C-0.123752 22.5762 0.0887534 15.8019 0.0147561 9.04773C0.296515 3.28223 5.06412 0.840779 10.141 0.21062C16.1931 -0.540484 25.818 0.418433 26.8781 8.0509C27.0835 14.9692 26.9773 21.9259 26.9332 28.8519C26.677 31.4945 25.2734 33.753 23.0483 35.1333C24.3912 36.422 25.4324 38.0854 25.5585 39.9999H25.559ZM12.3382 36.1163V24.9687C12.3382 24.1207 11.5522 23.2659 11.0864 22.5911C10.9512 22.3953 10.1628 21.1441 10.0779 21.1182H6.11621L4.44795 23.0269H3.57137C3.58797 22.8604 3.5339 22.6597 3.59698 22.5014C3.69802 22.2475 4.56891 21.4513 4.80229 21.1316C4.85921 21.0539 4.95692 20.9492 4.94838 20.8475C4.94364 20.7947 4.52053 20.3325 4.44368 20.2505C4.23213 20.0258 3.5116 19.435 3.47508 19.1692C3.46275 19.0794 3.46796 18.6143 3.53105 18.5745C3.86404 18.5716 4.09694 18.4891 4.3602 18.7286C4.72971 19.065 5.20358 19.8262 5.55981 20.0801C5.80078 20.2514 6.14135 20.1948 6.43497 20.1986C7.42682 20.2116 8.46895 20.2269 9.47218 20.1501C9.54286 20.1449 9.60926 20.1871 9.59029 20.0777L6.55735 16.5295L4.17141 16.4503L3.57137 15.4991H6.36714L6.41457 12.8143L7.35614 13.5155C7.46619 13.7329 7.41164 14.8982 7.41211 15.2375C7.41211 15.5245 7.30776 15.8216 7.45481 16.1004C9.23596 18.1315 10.9251 20.238 12.7281 22.247L14.5789 22.2604L19.7716 16.1883C19.8237 16.1182 19.8199 16.0385 19.8271 15.9569C19.8987 15.1693 19.7697 14.2714 19.8242 13.4713L20.7729 12.7663V15.4276L20.844 15.4995H23.6398C23.6479 15.4995 23.8016 15.3772 23.7575 15.5226C23.7285 15.6176 23.5122 15.8384 23.4359 15.9646C23.3253 16.1475 23.2769 16.3673 23.1076 16.5045L20.6989 16.552L17.7409 19.9918L17.7395 20.1501C17.9539 20.1036 18.1868 20.202 18.3794 20.2025C18.4913 20.2025 18.5961 20.1487 18.709 20.1487C19.4172 20.1477 20.1259 20.1621 20.8336 20.1405L22.3112 18.3749C22.5616 18.2006 22.8249 18.3182 23.0938 18.3288C23.0754 18.528 23.1271 18.7746 23.0844 18.9657C23.0379 19.1744 22.194 19.8977 22.1921 20.0782L22.2652 20.1986H24.0895V21.1095H22.739C22.6356 21.1095 22.6888 21.2545 22.7229 21.3174C22.9312 21.696 23.6436 22.2902 23.7693 22.6079C23.8035 22.6948 23.8898 23.1714 23.7812 23.1714H22.952C22.8339 22.9741 22.657 22.7265 22.5023 22.5474C22.3325 22.3507 21.3042 21.147 21.2126 21.1196L17.3358 21.1095C17.2647 21.1172 17.1945 21.123 17.1366 21.1715C17.0099 21.2785 16.7092 21.8343 16.5745 22.0166C16.1922 22.5345 15.7012 23.0859 15.3782 23.6355C15.2814 23.8001 14.7967 24.807 14.8033 24.9246C14.8085 25.0186 14.9209 25.0513 14.9428 25.1621C15.0101 25.5072 14.93 26.2036 14.9413 26.602C14.9874 28.1978 15.0248 29.7993 14.9409 31.397L14.9907 36.1177C16.9568 35.9905 18.8831 35.4947 20.6296 34.5824C20.6567 34.4725 20.6092 34.5041 20.5699 34.4734C20.069 34.0789 19.3608 33.8154 18.829 33.4536L19.3489 32.6377L21.4854 33.8889C21.6324 33.9455 21.973 33.6177 22.0992 33.5049C23.5506 32.2096 24.3784 30.3244 24.5173 28.3758V8.99973C24.2645 4.04581 20.0343 1.73394 15.6301 1.25881C10.1462 0.667042 2.94714 2.25276 2.47944 8.95222V28.3749C2.75835 33.5467 7.75317 36.0337 12.3382 36.1163Z" fill="var(--fill-0, white)"/>
<path id="Vector_2" d="M9.2098 5.23828L10.196 5.99034L10.2486 8.62185L12.9747 11.3772L13.1426 11.4228V7.15564H14.0903V11.4228C14.1643 11.4357 14.1999 11.4156 14.2582 11.3772C14.3507 11.3167 14.6866 10.9745 14.7961 10.8665C15.5475 10.1284 16.2467 9.3264 17.0037 8.59305L17.0369 5.98986L17.9756 5.2858V7.97105H20.8188L20.2639 8.93093C19.4807 8.97124 18.6668 8.83398 17.9016 9.02308L14.0898 12.9816V21.1564H13.2132L13.1421 21.0844V12.9336L9.25534 9.00292L6.96712 8.92085L6.41309 7.97105H9.20885V5.23828H9.2098Z" fill="var(--fill-0, white)"/>
<path id="Vector_3" d="M14.0439 4.42334V6.34117C13.7697 6.35317 13.3741 6.39637 13.1436 6.26918V4.42334H14.0439Z" fill="var(--fill-0, white)"/>
</g>
</svg>
